<?xml version="1.0" standalone="no"?>
<!DOCTYPE svg PUBLIC "-//W3C//DTD SVG 20010904//EN"
 "http://www.w3.org/TR/2001/REC-SVG-20010904/DTD/svg10.dtd">
<svg version="1.0" xmlns="http://www.w3.org/2000/svg"
 width="460.000000pt" height="460.000000pt" viewBox="0 0 460.000000 460.000000"
 preserveAspectRatio="xMidYMid meet">
<metadata>
Created by potrace 1.14, written by Peter Selinger 2001-2017
</metadata>
<g transform="translate(0.000000,460.000000) scale(0.100000,-0.100000)"
fill="#000000" stroke="none">
<path d="M1036 4541 c-4 -5 -2 -12 3 -15 5 -4 12 -2 15 3 4 5 2 12 -3 15 -5 4
-12 2 -15 -3z"/>
<path d="M951 4498 c-8 -17 -10 -33 -4 -37 5 -3 8 -13 8 -21 -2 -26 8 -35 16
-14 10 26 11 92 1 98 -4 2 -14 -9 -21 -26z"/>
<path d="M1050 4491 c0 -13 -7 -29 -16 -35 -18 -13 -9 -46 12 -46 8 0 23 9 34
20 11 11 16 20 10 20 -5 0 -10 6 -10 13 0 7 -7 22 -15 33 -14 18 -14 18 -15
-5z"/>
<path d="M991 4309 c-24 -53 -22 -74 6 -46 16 16 19 15 44 -9 19 -19 33 -24
48 -19 29 9 26 25 -4 25 -14 0 -25 4 -25 9 0 5 -9 13 -20 16 -20 7 -21 14 -3
63 3 6 -1 12 -8 12 -8 -1 -25 -23 -38 -51z"/>
<path d="M212 4323 c-35 -52 -36 -56 -13 -48 32 10 28 -33 -6 -63 -18 -15 -21
-22 -10 -18 21 7 22 -2 0 -26 -20 -22 -1 -24 22 -2 15 15 17 15 30 -2 14 -18
15 -18 21 3 3 12 13 25 22 28 15 7 15 8 -1 14 -16 6 -14 9 13 29 l31 23 -7
-50 c-6 -47 -5 -51 14 -51 12 0 30 10 41 22 18 18 24 20 46 10 34 -16 32 2 -4
27 -29 21 -44 19 -34 -5 3 -8 -1 -14 -11 -14 -14 0 -16 8 -10 50 4 32 3 50 -4
50 -5 0 -12 -6 -15 -13 -3 -7 -21 -18 -41 -24 -35 -11 -38 -10 -47 15 -7 19
-7 32 0 44 14 23 14 28 -3 28 -8 0 -23 -12 -34 -27z"/>
<path d="M2131 4196 c3 -3 61 -25 129 -50 116 -41 276 -113 303 -136 7 -6 32
-24 57 -40 96 -61 275 -235 349 -337 23 -32 79 -116 125 -188 242 -375 255
-391 338 -450 29 -20 85 -61 123 -91 114 -88 240 -138 350 -137 59 1 135 23
135 41 0 5 -14 30 -31 56 -23 34 -46 53 -87 73 -69 33 -102 36 -171 17 -40
-12 -61 -13 -84 -5 -38 14 -60 14 -52 1 3 -5 1 -10 -4 -10 -19 0 -12 -18 18
-51 19 -20 34 -29 43 -24 10 6 10 5 2 -4 -14 -15 -34 -6 -111 51 l-52 38 6
102 c3 57 6 162 7 233 2 140 13 235 27 235 5 0 17 -5 27 -11 20 -13 92 6 166
43 32 16 43 18 66 8 16 -7 38 -9 49 -5 17 5 20 14 19 51 l-2 44 -64 0 c-64 0
-97 11 -120 39 -22 28 -59 104 -82 171 -19 56 -32 75 -93 133 -40 37 -73 67
-75 67 -10 0 37 -55 74 -85 45 -37 75 -85 88 -140 13 -52 46 -115 83 -155 35
-39 36 -40 107 -40 70 -1 71 -1 49 -19 -12 -10 -19 -21 -16 -25 3 -3 12 -1 20
6 17 13 28 4 20 -17 -9 -22 -54 -19 -69 5 -14 22 -29 27 -26 8 2 -7 -26 -27
-62 -45 -76 -37 -136 -55 -75 -22 51 27 74 47 71 62 -3 23 -17 37 -36 37 -20
0 -65 48 -75 81 -4 12 -16 30 -26 40 -10 10 -19 26 -19 34 0 8 -4 15 -9 15 -5
0 -11 10 -13 23 -4 31 -53 36 -78 8 l-18 -21 -6 32 c-4 18 -7 42 -7 52 0 32
-17 55 -37 50 -15 -5 -17 -14 -14 -76 3 -41 -1 -86 -8 -109 l-13 -39 -38 77
c-21 43 -48 89 -59 103 l-22 25 19 -35 c10 -19 23 -42 29 -50 33 -46 116 -287
163 -475 32 -125 75 -395 64 -395 -3 0 -24 11 -47 25 -54 32 -94 74 -79 83 14
9 -13 133 -64 295 -3 9 -10 17 -15 17 -5 0 -6 5 -3 10 10 17 -64 227 -119 335
-28 55 -53 102 -56 105 -3 3 -17 23 -31 45 -34 52 -118 135 -136 135 -8 0 7
-20 34 -45 l48 -44 -44 -1 c-33 0 -57 -8 -92 -32 -27 -18 -51 -39 -54 -46 -6
-15 5 -10 52 26 18 13 50 26 72 29 35 5 39 3 36 -13 -1 -11 6 -34 17 -52 49
-80 58 -108 45 -136 -13 -28 -26 -33 -45 -14 -15 15 -31 -4 -32 -37 -1 -18 -2
-18 -11 -3 -29 50 -266 273 -359 339 -51 36 -228 129 -245 129 -4 0 -21 6 -38
14 -65 29 -220 75 -206 62z m1287 -592 c4 2 8 -12 8 -33 l2 -36 -13 35 c-12
32 -20 71 -8 42 2 -6 8 -10 11 -8z m112 -93 c0 -41 -11 -91 -20 -91 -16 0 -22
61 -10 91 16 37 30 37 30 0z m-23 -323 c-3 -8 -6 -5 -6 6 -1 11 2 17 5 13 3
-3 4 -12 1 -19z"/>
<path d="M972 4133 c-7 -16 -9 -29 -4 -31 5 -1 6 -16 4 -32 -2 -17 0 -30 6
-30 12 0 22 24 22 53 0 11 7 29 17 39 9 10 11 18 5 18 -6 0 -16 2 -24 5 -7 3
-18 -7 -26 -22z"/>
<path d="M1047 4123 c-13 -13 -7 -21 13 -16 11 3 20 9 20 14 0 10 -24 12 -33
2z"/>
<path d="M2082 4075 c-2 -84 59 -319 91 -350 7 -7 7 -4 2 10 -28 73 -65 205
-74 267 -6 40 -13 84 -15 98 -2 14 -4 3 -4 -25z"/>
<path d="M305 4089 c-4 -6 -5 -13 -2 -16 7 -7 27 6 27 18 0 12 -17 12 -25 -2z"/>
<path d="M346 4076 c4 -16 1 -25 -10 -29 -20 -8 -20 -21 0 -41 21 -21 41 -20
54 3 8 15 5 28 -13 55 -26 41 -40 46 -31 12z"/>
<path d="M2960 4079 c-24 -11 -51 -28 -60 -37 -25 -28 -52 -73 -47 -79 3 -2
11 6 17 19 23 44 63 77 112 94 26 8 48 17 48 20 0 8 -26 2 -70 -17z"/>
<path d="M246 4073 c-19 -20 11 -82 33 -68 9 5 10 10 2 18 -6 6 -11 19 -11 28
0 20 -14 32 -24 22z"/>
<path d="M1100 4070 c-8 -6 -25 -10 -38 -10 -32 0 -23 -24 11 -28 18 -2 29 3
37 18 14 26 10 32 -10 20z"/>
<path d="M1855 4032 c9 -30 70 -136 109 -185 16 -22 55 -61 87 -87 40 -34 54
-50 43 -54 -7 -3 -14 -10 -14 -16 0 -5 9 -2 20 7 19 17 18 18 -44 78 -80 76
-129 138 -172 217 -19 35 -32 52 -29 40z"/>
<path d="M2165 3993 c6 -88 16 -136 31 -151 8 -7 14 -19 14 -27 0 -7 6 -16 13
-18 9 -4 9 -6 -1 -6 -10 -1 -9 -8 3 -31 9 -16 12 -30 8 -30 -5 0 0 -5 10 -11
9 -5 17 -18 17 -27 0 -29 -28 -97 -39 -95 -6 2 -18 -9 -28 -25 -10 -15 -21
-29 -25 -32 -31 -23 -62 -210 -38 -225 5 -3 32 2 60 11 109 36 288 1 417 -82
57 -36 213 -186 213 -204 0 -5 17 -38 38 -72 20 -35 46 -80 56 -101 17 -32
226 -253 226 -239 0 3 -7 13 -16 23 -15 17 -15 18 5 16 12 -1 21 -4 21 -7 0
-19 598 -45 616 -27 3 3 1 15 -5 26 -10 18 -9 20 6 14 12 -5 7 4 -12 25 -16
18 -33 32 -37 32 -9 0 -96 57 -153 100 -22 16 -47 33 -55 37 -45 20 -303 266
-356 338 -16 22 -39 51 -52 65 -13 14 -30 37 -38 52 -8 15 -29 48 -46 74 -18
26 -51 73 -73 105 -64 92 -144 185 -233 274 -30 29 -199 119 -322 173 -136 58
-196 86 -204 93 -21 19 -26 7 -21 -48z m465 -414 c45 -17 143 -77 244 -149 95
-67 232 -276 222 -337 -2 -15 -5 -32 -5 -37 -1 -5 -22 30 -47 79 -86 166 -192
273 -352 355 -100 50 -187 68 -249 51 -57 -16 -123 -68 -151 -119 -32 -58 -58
-57 -52 3 5 51 98 131 193 166 61 23 115 19 197 -12z m-257 -211 c7 -5 2 -8
-13 -8 -14 0 -32 5 -40 10 -9 6 -11 10 -3 10 7 0 10 7 6 15 -3 9 3 25 13 37
19 20 19 20 22 -18 2 -21 9 -42 15 -46z m1300 -711 c-4 -7 7 -8 35 -4 24 4 43
3 47 -3 7 -11 -179 -12 -285 -1 l-65 7 80 8 c44 4 86 8 94 9 36 5 100 -6 94
-16z"/>
<path d="M3315 4039 c-20 -5 -9 -6 30 -2 33 3 62 7 64 9 8 7 -63 2 -94 -7z"/>
<path d="M3196 4011 c-4 -5 3 -7 14 -4 23 6 26 13 6 13 -8 0 -17 -4 -20 -9z"/>
<path d="M3421 3989 c0 -19 5 -43 10 -54 6 -13 7 -4 3 30 -8 60 -14 72 -13 24z"/>
<path d="M1010 3972 c0 -10 -3 -22 -7 -26 -11 -11 -10 -77 2 -73 5 2 16 16 25
32 20 37 36 41 50 15 9 -17 8 -25 -5 -40 -11 -13 -13 -20 -5 -25 15 -9 50 23
50 45 0 28 -39 70 -66 70 -13 0 -24 5 -24 10 0 6 -4 10 -10 10 -5 0 -10 -8
-10 -18z"/>
<path d="M1110 3980 c0 -18 59 -72 70 -65 13 8 -1 27 -42 56 -16 12 -28 15
-28 9z"/>
<path d="M3200 3956 c0 -2 8 -10 18 -17 15 -13 16 -12 3 4 -13 16 -21 21 -21
13z"/>
<path d="M1812 3778 c-2 -187 8 -292 38 -398 25 -88 25 -64 -1 51 -16 70 -23
148 -28 309 l-8 215 -1 -177z"/>
<path d="M240 3909 c0 -29 18 -59 36 -59 9 0 14 3 12 8 -3 4 -10 22 -17 40
-15 36 -31 42 -31 11z"/>
<path d="M370 3896 c0 -20 5 -36 10 -36 6 0 10 13 10 29 0 17 -4 33 -10 36 -6
4 -10 -8 -10 -29z"/>
<path d="M1895 3817 c-38 -48 -44 -73 -39 -178 6 -114 13 -144 54 -234 15 -33
31 -71 35 -84 5 -18 9 -21 16 -10 6 11 9 8 9 -8 0 -12 -8 -28 -19 -35 -10 -7
-31 -29 -47 -48 -27 -34 -27 -33 17 6 62 56 82 66 145 67 31 1 52 6 50 12 -2
6 -9 9 -15 7 -7 -1 -10 2 -6 7 3 6 -1 24 -10 40 -22 44 -19 62 24 128 48 75
98 126 113 117 7 -4 8 -3 4 5 -4 6 -2 19 6 29 7 9 -7 1 -32 -18 -25 -19 -39
-27 -32 -19 10 14 9 17 -8 22 -14 4 -18 11 -14 24 5 17 5 17 -9 0 -13 -15 -19
-17 -37 -7 -12 6 -20 14 -17 16 2 3 -9 18 -25 34 -17 17 -26 35 -22 42 5 8 2
9 -9 5 -9 -3 -16 -3 -16 1 3 20 -3 30 -22 35 -14 4 -20 11 -16 21 4 10 1 13
-7 10 -7 -3 -19 2 -26 11 -15 18 -31 19 -45 2z m-8 -299 c-3 -8 -6 -5 -6 6 -1
11 2 17 5 13 3 -3 4 -12 1 -19z"/>
<path d="M333 3799 c-57 -16 -52 -33 6 -25 57 7 59 4 18 -41 -20 -23 -20 -23
0 -23 44 0 84 80 47 94 -19 7 -30 7 -71 -5z"/>
<path d="M1025 3728 c-40 -64 -44 -72 -38 -82 6 -9 37 22 59 60 9 16 15 17 35
7 36 -18 69 -25 69 -16 0 10 -79 63 -95 63 -5 0 -19 -15 -30 -32z"/>
<path d="M2949 3738 c-12 -22 -11 -22 6 -8 17 14 18 14 6 -9 -7 -13 -9 -21 -3
-17 5 3 13 -2 17 -12 6 -16 7 -16 16 1 8 13 5 24 -10 43 l-20 25 -12 -23z"/>
<path d="M800 3706 c-9 -12 -17 -13 -36 -4 -29 13 -46 1 -23 -16 11 -8 16 -25
15 -51 -1 -37 1 -40 28 -43 16 -2 33 1 39 7 8 8 3 11 -16 11 -35 0 -34 17 3
60 16 19 29 38 30 43 0 12 -27 8 -40 -7z"/>
<path d="M1047 3673 c-13 -13 -7 -23 16 -23 21 -1 20 -2 -5 -16 -34 -18 -36
-36 -5 -34 36 3 39 1 21 -17 -24 -24 1 -30 27 -7 22 20 23 71 2 67 -7 -2 -13
6 -13 17 0 20 -28 28 -43 13z"/>
<path d="M2107 3669 c7 -7 15 -10 18 -7 3 3 -2 9 -12 12 -14 6 -15 5 -6 -5z"/>
<path d="M323 3648 c-34 -11 -45 -28 -18 -28 19 0 19 -10 -1 -38 -8 -12 -14
-32 -12 -45 2 -18 10 -23 47 -25 24 -2 49 2 54 7 8 8 -1 11 -31 11 -28 0 -42
4 -42 13 0 18 62 87 78 87 16 0 16 17 0 17 -7 0 -20 3 -28 6 -8 3 -30 0 -47
-5z"/>
<path d="M435 3650 c3 -5 8 -10 11 -10 2 0 4 5 4 10 0 6 -5 10 -11 10 -5 0 -7
-4 -4 -10z"/>
<path d="M2160 3635 c0 -7 30 -13 34 -7 3 4 -4 9 -15 9 -10 1 -19 0 -19 -2z"/>
<path d="M4318 3573 c7 -3 16 -2 19 1 4 3 -2 6 -13 5 -11 0 -14 -3 -6 -6z"/>
<path d="M4450 3550 c8 -5 20 -10 25 -10 6 0 3 5 -5 10 -8 5 -19 10 -25 10 -5
0 -3 -5 5 -10z"/>
<path d="M1062 3529 c-42 -21 -43 -23 -37 -58 14 -74 64 -89 113 -35 28 32 30
89 3 104 -26 14 -30 13 -79 -11z m68 -29 c0 -12 -7 -20 -17 -20 -10 0 -29 -3
-42 -7 -31 -8 -24 17 10 34 34 18 49 16 49 -7z m-11 -54 c-2 -2 -18 -7 -34
-10 l-30 -6 30 14 c26 12 46 14 34 2z"/>
<path d="M783 3525 c-36 -15 -46 -41 -13 -32 24 6 24 4 4 -35 -15 -29 -15 -32
1 -44 13 -10 21 -10 36 -1 16 10 17 13 4 15 -21 5 -19 20 10 54 45 53 26 73
-42 43z"/>
<path d="M4005 3520 c3 -5 8 -10 11 -10 2 0 4 5 4 10 0 6 -5 10 -11 10 -5 0
-7 -4 -4 -10z"/>
<path d="M4144 3512 c3 -5 0 -13 -6 -15 -9 -4 -10 -6 -1 -6 17 -1 25 16 12 25
-7 4 -9 3 -5 -4z"/>
<path d="M4540 3501 c0 -5 5 -13 10 -16 6 -3 10 -2 10 4 0 5 -4 13 -10 16 -5
3 -10 2 -10 -4z"/>
<path d="M333 3472 c-10 -11 -28 -25 -40 -31 -28 -15 -30 -35 -3 -26 34 11 23
-23 -12 -39 l-33 -14 28 -1 c15 -1 36 -10 47 -21 27 -27 52 -25 89 6 41 34 40
49 -1 24 -38 -23 -58 -25 -58 -7 0 6 18 20 40 29 22 9 40 22 40 28 0 7 -7 9
-16 6 -52 -20 -64 -19 -64 6 0 13 5 29 11 35 7 7 7 13 0 17 -5 4 -18 -2 -28
-12z"/>
<path d="M4240 3456 c7 -10 27 -24 44 -33 38 -19 32 -12 -19 23 -22 14 -33 19
-25 10z"/>
<path d="M4358 3448 c5 -5 16 -8 23 -6 8 3 3 7 -10 11 -17 4 -21 3 -13 -5z"/>
<path d="M4485 3403 c-38 -14 -78 -13 -145 3 -24 5 -24 5 -5 -7 31 -20 161
-17 182 4 10 9 15 16 13 16 -3 -1 -23 -8 -45 -16z"/>
<path d="M800 3361 c-5 -11 -19 -23 -30 -26 -25 -8 -26 -25 -2 -25 14 -1 14
-3 -5 -19 -27 -22 -29 -31 -8 -31 8 0 15 -6 15 -14 0 -7 7 -19 15 -26 13 -11
20 -10 42 7 34 25 45 50 15 34 -28 -15 -42 -14 -42 3 0 7 10 17 23 20 20 6 20
8 6 19 -11 8 -15 22 -11 45 5 36 -2 41 -18 13z"/>
<path d="M1062 3327 c-23 -25 -29 -61 -11 -72 20 -13 55 4 66 32 10 27 11 26
12 -17 l2 -45 15 27 c24 46 -1 98 -49 98 -7 0 -23 -10 -35 -23z m20 -39 c-7
-7 -12 -8 -12 -2 0 14 12 26 19 19 2 -3 -1 -11 -7 -17z"/>
<path d="M371 3266 c-17 -9 -24 -23 -26 -47 -1 -19 -5 -45 -10 -58 -7 -22 -5
-23 16 -17 13 3 38 9 54 12 27 4 27 3 8 -5 -23 -10 -32 -31 -14 -31 12 0 71
52 71 62 0 5 -6 8 -14 8 -8 0 -16 10 -18 23 -2 16 -9 22 -25 21 -25 -1 -31 11
-10 19 8 3 9 8 2 15 -7 7 -17 7 -34 -2z m-1 -72 c0 -8 -5 -12 -10 -9 -6 4 -8
11 -5 16 9 14 15 11 15 -7z m50 6 c0 -5 -4 -10 -9 -10 -6 0 -13 5 -16 10 -3 6
1 10 9 10 9 0 16 -4 16 -10z"/>
<path d="M290 3252 c-8 -10 -21 -28 -28 -40 -10 -18 -10 -22 2 -22 18 0 26
-22 26 -71 0 -21 4 -39 10 -39 16 0 23 50 12 88 -6 21 -8 52 -5 70 6 37 3 39
-17 14z"/>
<path d="M1077 3156 c-44 -53 -45 -58 -12 -50 24 6 25 4 25 -41 0 -33 4 -45
13 -42 8 2 12 31 13 90 1 48 1 87 0 87 -1 0 -18 -20 -39 -44z"/>
<path d="M800 3161 c0 -12 -11 -23 -30 -30 -16 -5 -30 -15 -30 -21 0 -8 10 -9
30 -5 35 8 40 -6 8 -27 -14 -9 -19 -20 -15 -31 7 -18 47 -24 47 -8 0 15 31 42
41 35 11 -6 -7 -44 -29 -60 -14 -10 -14 -21 3 -69 7 -20 6 -20 -9 -1 -15 19
-16 19 -16 -7 0 -15 -4 -27 -9 -27 -14 0 -21 28 -14 60 8 41 -5 38 -23 -6 -10
-24 -12 -40 -5 -47 5 -7 11 -28 14 -47 4 -32 5 -33 12 -12 5 17 13 22 26 19
11 -3 22 -1 25 4 3 5 10 7 15 3 6 -3 2 -12 -10 -21 -35 -24 -24 -33 42 -32 55
0 59 2 37 12 -45 21 -49 29 -32 62 14 27 16 28 22 10 7 -18 9 -18 15 -3 8 21
-1 38 -21 38 -8 0 -14 9 -14 20 0 11 -6 23 -14 26 -14 6 -11 39 7 61 14 19 1
43 -24 43 -17 0 -20 5 -16 21 3 13 -2 28 -14 40 -19 19 -19 19 -19 0z"/>
<path d="M2421 3100 c18 -32 35 -57 37 -55 5 4 -57 115 -64 115 -3 0 9 -27 27
-60z"/>
<path d="M870 3140 c0 -5 5 -10 11 -10 5 0 7 5 4 10 -3 6 -8 10 -11 10 -2 0
-4 -4 -4 -10z"/>
<path d="M1794 3089 c-27 -33 -54 -66 -59 -72 -25 -29 -86 -119 -83 -123 2 -2
28 30 58 72 29 41 63 85 75 97 23 24 69 87 63 87 -3 0 -26 -27 -54 -61z"/>
<path d="M364 3132 c-7 -4 -11 -18 -10 -32 1 -24 4 -25 64 -27 34 0 62 0 62 2
0 9 -66 35 -86 35 -17 0 -22 4 -18 15 7 17 4 18 -12 7z"/>
<path d="M2609 3080 c14 -27 27 -45 29 -40 3 8 -44 90 -52 90 -2 0 8 -22 23
-50z"/>
<path d="M2743 3080 c24 -59 52 -115 59 -118 4 -2 4 -10 1 -19 -5 -12 -3 -14
7 -8 10 6 12 4 7 -8 -3 -10 -2 -17 3 -17 5 0 14 -19 20 -42 18 -69 39 -124 40
-106 1 49 -92 281 -135 333 -15 19 -15 18 -2 -15z"/>
<path d="M1885 3016 c-4 -29 -3 -78 3 -107 9 -51 10 -48 11 54 0 59 -1 107 -3
107 -3 0 -8 -24 -11 -54z"/>
<path d="M1790 3024 c-12 -19 -20 -37 -18 -39 2 -3 15 13 27 35 28 50 21 53
-9 4z"/>
<path d="M3835 3029 c-40 -21 -35 -20 42 3 39 11 45 10 70 -8 15 -12 49 -49
75 -83 27 -34 48 -56 48 -47 0 19 -71 109 -108 135 -37 26 -74 26 -127 0z"/>
<path d="M2470 3005 c0 -5 5 -17 10 -25 5 -8 10 -10 10 -5 0 6 -5 17 -10 25
-5 8 -10 11 -10 5z"/>
<path d="M3768 3003 c7 -3 16 -2 19 1 4 3 -2 6 -13 5 -11 0 -14 -3 -6 -6z"/>
<path d="M340 2947 c0 -69 18 -96 53 -80 14 7 31 22 37 33 11 21 11 21 -18 6
-36 -18 -42 -10 -42 55 0 28 -4 39 -15 39 -11 0 -15 -13 -15 -53z"/>
<path d="M2656 2987 c3 -10 9 -15 12 -12 3 3 0 11 -7 18 -10 9 -11 8 -5 -6z"/>
<path d="M3690 2990 c-20 -6 -21 -8 -5 -8 11 0 31 4 45 8 20 6 21 8 5 8 -11 0
-31 -4 -45 -8z"/>
<path d="M1074 2945 c-11 -42 7 -99 31 -103 22 -3 84 43 73 53 -3 4 -20 -1
-37 -10 l-31 -16 0 40 c0 50 -26 76 -36 36z"/>
<path d="M1756 2955 c-3 -9 -6 -22 -5 -28 0 -7 5 -1 10 12 5 13 8 26 5 28 -2
2 -6 -3 -10 -12z"/>
<path d="M2491 2955 c1 -19 18 -51 18 -35 0 8 -4 22 -9 30 -5 8 -9 11 -9 5z"/>
<path d="M1680 2865 c-22 -48 -39 -89 -36 -92 2 -2 12 15 22 39 11 23 29 63
42 87 12 24 21 46 18 48 -2 3 -23 -35 -46 -82z"/>
<path d="M1735 2880 c-4 -17 -5 -34 -2 -36 3 -3 8 9 12 26 4 17 5 34 2 36 -3
3 -8 -9 -12 -26z"/>
<path d="M2511 2895 c0 -5 6 -32 13 -60 9 -30 14 -40 14 -25 0 24 -26 106 -27
85z"/>
<path d="M2319 2873 c6 -13 19 -23 28 -23 9 0 14 1 12 3 -2 1 -15 11 -28 22
l-24 20 12 -22z"/>
<path d="M2760 2875 c-1 -5 -1 -14 0 -20 2 -5 6 -26 10 -45 7 -34 8 -34 8 -5
0 31 -14 87 -18 70z"/>
<path d="M2230 2860 c-11 -7 -6 -10 20 -10 26 0 31 3 20 10 -8 5 -17 10 -20
10 -3 0 -12 -5 -20 -10z"/>
<path d="M2180 2851 c0 -6 4 -13 10 -16 6 -3 7 1 4 9 -7 18 -14 21 -14 7z"/>
<path d="M1901 2834 c0 -11 3 -14 6 -6 3 7 2 16 -1 19 -3 4 -6 -2 -5 -13z"/>
<path d="M2702 2840 c0 -8 4 -26 8 -40 6 -20 8 -21 8 -5 0 11 -3 29 -8 40 -5
12 -8 14 -8 5z"/>
<path d="M1965 2819 c4 -13 21 -43 36 -66 16 -23 29 -46 29 -51 0 -5 -21 -13
-47 -17 -25 -4 -42 -10 -36 -13 5 -4 13 -19 17 -34 4 -20 12 -27 26 -25 11 2
22 6 26 10 4 3 15 2 25 -4 17 -9 19 -6 19 22 l0 32 23 -20 c45 -41 51 -36 7 8
-52 51 -93 107 -93 126 0 7 -4 13 -9 13 -4 0 -8 6 -8 14 0 8 -5 18 -11 22 -8
4 -9 -1 -4 -17z"/>
<path d="M2377 2819 c12 -12 24 -21 27 -18 2 2 -8 13 -22 23 l-27 19 22 -24z"/>
<path d="M2270 2826 c0 -2 8 -10 18 -17 15 -13 16 -12 3 4 -13 16 -21 21 -21
13z"/>
<path d="M324 2806 c-9 -22 11 -66 30 -66 12 0 13 6 5 32 -12 42 -26 56 -35
34z"/>
<path d="M430 2755 c0 -42 2 -46 16 -35 18 15 15 71 -3 78 -9 2 -13 -10 -13
-43z"/>
<path d="M1108 2747 c-43 -58 -50 -84 -19 -67 18 9 20 6 23 -27 2 -20 9 -39
17 -41 11 -4 13 7 9 55 -4 40 -1 67 8 84 15 27 18 49 7 48 -5 0 -25 -23 -45
-52z"/>
<path d="M1895 2777 c-11 -11 -14 -17 -7 -12 8 4 26 10 40 14 24 7 24 8 7 13
-12 3 -28 -3 -40 -15z"/>
<path d="M4045 2780 c-10 -11 -16 -22 -13 -25 3 -3 13 6 22 20 20 30 16 32 -9
5z"/>
<path d="M817 2783 c-4 -3 -7 -28 -7 -54 0 -34 4 -49 16 -53 19 -7 64 18 64
36 0 9 -3 9 -12 0 -27 -27 -41 -14 -36 33 5 43 -5 58 -25 38z"/>
<path d="M2246 2781 c-3 -5 1 -14 9 -21 10 -9 15 -9 15 -1 0 6 -5 11 -11 11
-5 0 -7 5 -4 10 3 6 4 10 1 10 -3 0 -7 -4 -10 -9z"/>
<path d="M2980 2761 c5 -11 15 -23 21 -27 6 -3 3 5 -6 20 -20 30 -30 35 -15 7z"/>
<path d="M2536 2742 c-2 -4 -1 -14 5 -22 7 -12 9 -10 9 8 0 23 -5 28 -14 14z"/>
<path d="M1752 2715 c0 -16 2 -22 5 -12 2 9 2 23 0 30 -3 6 -5 -1 -5 -18z"/>
<path d="M2281 2693 c1 -21 4 -48 7 -60 8 -25 48 -73 61 -73 5 0 -4 14 -21 30
-20 20 -28 37 -25 50 3 10 0 21 -7 24 -6 2 31 5 82 5 81 1 92 -1 93 -16 1 -29
17 16 18 50 l1 27 -105 0 -105 0 1 -37z"/>
<path d="M2701 2714 c0 -11 3 -14 6 -6 3 7 2 16 -1 19 -3 4 -6 -2 -5 -13z"/>
<path d="M2881 2714 c0 -11 3 -14 6 -6 3 7 2 16 -1 19 -3 4 -6 -2 -5 -13z"/>
<path d="M1552 2695 c0 -16 2 -22 5 -12 2 9 2 23 0 30 -3 6 -5 -1 -5 -18z"/>
<path d="M1606 2685 c-9 -26 -7 -32 5 -12 6 10 9 21 6 23 -2 3 -7 -2 -11 -11z"/>
<path d="M2746 2639 c-20 -69 -13 -76 9 -9 9 28 15 54 12 56 -3 3 -12 -18 -21
-47z"/>
<path d="M445 2671 c-3 -6 -10 -9 -15 -6 -10 6 -100 -27 -100 -37 0 -4 14 -8
31 -8 l30 0 -20 -26 c-25 -31 -26 -47 -7 -63 11 -9 22 -9 49 2 45 20 60 40 17
25 -17 -5 -33 -8 -36 -5 -7 6 45 98 60 109 6 4 8 10 4 13 -3 4 -9 1 -13 -4z"/>
<path d="M1762 2660 c0 -14 2 -19 5 -12 2 6 2 18 0 25 -3 6 -5 1 -5 -13z"/>
<path d="M2627 2673 c-4 -3 -7 -11 -7 -17 0 -6 5 -5 12 2 6 6 9 14 7 17 -3 3
-9 2 -12 -2z"/>
<path d="M1721 2644 c0 -11 3 -14 6 -6 3 7 2 16 -1 19 -3 4 -6 -2 -5 -13z"/>
<path d="M1591 2634 c0 -11 3 -14 6 -6 3 7 2 16 -1 19 -3 4 -6 -2 -5 -13z"/>
<path d="M1555 2606 c2 -22 10 -44 16 -50 9 -8 10 -6 4 9 -4 11 -11 34 -16 50
-8 27 -8 26 -4 -9z"/>
<path d="M2526 2623 c-6 -14 -5 -15 5 -6 7 7 10 15 7 18 -3 3 -9 -2 -12 -12z"/>
<path d="M2636 2623 c-6 -14 -5 -15 5 -6 7 7 10 15 7 18 -3 3 -9 -2 -12 -12z"/>
<path d="M1767 2591 c-5 -22 -23 -43 -67 -77 -33 -26 -60 -51 -60 -55 0 -4 -8
-10 -17 -14 -10 -3 -36 -22 -58 -41 -34 -31 -29 -29 30 12 101 69 163 122 170
145 5 16 10 18 21 8 17 -14 18 -2 0 30 l-13 23 -6 -31z"/>
<path d="M1914 2600 c13 -47 28 -80 37 -80 4 0 -1 21 -13 48 -24 55 -33 68
-24 32z"/>
<path d="M1581 2594 c0 -11 3 -14 6 -6 3 7 2 16 -1 19 -3 4 -6 -2 -5 -13z"/>
<path d="M1861 2594 c0 -11 3 -14 6 -6 3 7 2 16 -1 19 -3 4 -6 -2 -5 -13z"/>
<path d="M1980 2592 c0 -27 31 -74 46 -68 9 3 18 6 20 6 2 0 4 4 4 9 0 5 -9 7
-20 4 -15 -4 -23 2 -35 28 -8 19 -14 28 -15 21z"/>
<path d="M784 2576 c-6 -17 22 -76 36 -76 13 0 13 17 -2 57 -13 35 -25 42 -34
19z"/>
<path d="M866 2581 c-3 -4 -2 -28 2 -52 l8 -44 11 30 c13 38 -4 94 -21 66z"/>
<path d="M1130 2579 c0 -4 -16 -13 -35 -19 -41 -13 -50 -46 -11 -36 13 3 32 9
42 13 15 5 16 2 11 -28 -3 -19 -8 -43 -12 -54 -5 -16 -1 -14 19 8 17 19 26 39
26 61 0 25 5 35 20 39 35 9 21 26 -20 24 -22 -1 -40 -4 -40 -8z"/>
<path d="M2420 2579 c0 -5 5 -7 10 -4 6 3 10 8 10 11 0 2 -4 4 -10 4 -5 0 -10
-5 -10 -11z"/>
<path d="M1901 2540 c-1 -20 -3 -22 -11 -10 -6 9 -10 10 -10 3 0 -6 5 -15 10
-18 12 -7 24 19 17 37 -3 7 -6 2 -6 -12z"/>
<path d="M2705 2539 c-4 -6 -5 -12 -2 -15 2 -3 7 2 10 11 7 17 1 20 -8 4z"/>
<path d="M390 2491 c0 -10 -14 -22 -35 -30 -37 -13 -50 -37 -15 -27 11 3 29 9
40 12 14 4 20 1 20 -10 0 -9 -4 -16 -10 -16 -14 0 -12 -27 3 -33 9 -3 8 -12
-5 -36 -14 -26 -15 -31 -3 -31 24 0 43 42 47 106 4 55 2 61 -19 71 -19 9 -23
8 -23 -6z"/>
<path d="M2685 2499 c-4 -6 -5 -12 -2 -15 2 -3 7 2 10 11 7 17 1 20 -8 4z"/>
<path d="M1920 2480 c0 -19 28 -60 52 -78 19 -14 26 -38 7 -26 -11 6 -73 -47
-90 -78 -16 -29 -3 -21 47 30 25 26 44 43 42 37 -3 -5 -10 -23 -18 -40 -9 -21
-40 -47 -102 -85 -49 -30 -98 -64 -109 -76 -20 -21 -20 -21 1 -75 12 -30 33
-69 47 -87 14 -18 23 -34 22 -36 -49 -33 -75 -44 -65 -27 3 5 -1 12 -10 15
-24 9 -31 7 -14 -4 9 -6 10 -10 3 -10 -6 0 -19 7 -27 16 -12 11 -20 13 -33 5
-14 -8 -15 -11 -3 -11 12 -1 11 -4 -3 -15 -13 -9 -17 -20 -12 -34 10 -32 -32
-28 -47 4 -9 20 -19 25 -52 27 -37 1 -38 2 -8 5 20 3 32 10 32 20 0 12 -7 14
-37 8 -48 -9 -59 -15 -42 -26 10 -6 8 -9 -8 -9 -36 0 -53 -11 -53 -35 0 -21 6
-23 78 -29 85 -8 98 -12 103 -39 4 -16 7 -16 36 6 18 13 31 26 29 28 -2 2 12
4 32 5 52 1 56 -14 14 -53 -42 -38 -44 -39 -40 -15 3 20 -10 18 -60 -5 -19 -9
-39 -24 -45 -34 -10 -16 -12 -16 -24 -1 -15 20 -16 8 -4 -35 5 -18 6 -34 3
-36 -4 -2 -2 -3 4 -1 60 13 109 13 179 -1 123 -25 115 -20 110 -73 l-5 -47 14
56 c27 116 96 245 160 298 9 7 13 17 11 21 -10 16 139 110 172 110 7 0 13 4
13 9 0 6 -13 5 -32 -1 -18 -5 -41 -10 -51 -10 -9 1 -15 -3 -12 -8 3 -5 -18
-24 -47 -43 -66 -42 -90 -65 -82 -79 4 -7 2 -8 -4 -4 -12 7 -62 -41 -99 -96
l-23 -33 0 35 c-1 39 -24 175 -35 203 -6 13 -2 17 16 17 21 1 22 2 6 11 -20
12 -37 4 -37 -18 0 -11 -5 -9 -19 8 -24 31 -51 85 -51 101 0 10 80 68 93 68 7
0 -1 -61 -9 -72 -9 -12 -10 -20 -6 -54 1 -7 10 -15 19 -18 10 -4 15 -4 11 -1
-3 4 1 27 9 53 12 33 13 47 5 50 -22 7 -12 37 22 70 19 18 36 32 39 32 2 0 7
-18 11 -40 8 -49 27 -60 101 -60 41 0 65 6 85 20 27 19 29 19 58 3 29 -17 32
-17 67 0 21 10 35 20 32 23 -3 4 -18 0 -34 -8 -20 -9 -34 -10 -50 -4 l-21 10
26 34 25 33 23 -28 23 -28 1 43 c0 24 -4 41 -9 38 -5 -3 -7 -16 -4 -29 4 -21
4 -21 -11 -3 -13 16 -13 22 2 52 9 19 22 33 30 32 8 -2 17 2 19 9 2 7 -3 10
-14 7 -13 -3 -23 7 -38 38 -11 23 -27 44 -35 46 -12 4 -12 2 -3 -8 22 -24 -30
-110 -68 -110 -9 0 -23 -8 -30 -17 -10 -14 -10 -15 0 -7 14 12 77 1 95 -17 12
-11 -9 -51 -35 -68 -17 -10 -24 -10 -37 1 -15 11 -15 11 -5 -2 17 -22 -9 -36
-78 -45 -72 -9 -104 13 -102 71 2 68 78 172 143 197 13 5 13 6 -1 6 -8 1 -34
-13 -57 -30 -42 -31 -43 -31 -64 -13 -11 11 -29 33 -39 49 -11 17 -19 23 -19
15z m23 -632 c-11 -13 -30 -44 -42 -70 -13 -27 -27 -48 -32 -48 -6 0 -8 -4 -5
-9 9 -15 -5 -41 -21 -41 -9 0 -33 5 -54 12 -44 13 -49 30 -23 79 8 17 13 33
10 36 -3 3 -8 -2 -12 -11 -3 -9 -10 -13 -15 -10 -5 3 -8 2 -7 -3 1 -4 -3 -22
-9 -40 -11 -30 -14 -32 -50 -26 -46 7 -48 8 -31 22 59 49 112 81 125 77 9 -4
23 4 35 19 32 41 48 32 48 -24 0 -34 -6 -56 -20 -72 l-19 -24 9 34 c12 44 6
51 -10 12 -14 -34 -5 -71 16 -71 8 0 12 5 9 10 -3 6 -1 10 6 10 7 0 10 3 6 6
-14 15 76 154 99 154 4 0 -2 -10 -13 -22z m-313 -124 c0 -8 -5 -12 -10 -9 -6
4 -8 11 -5 16 9 14 15 11 15 -7z"/>
<path d="M2409 2473 c-13 -16 -12 -17 4 -4 9 7 17 15 17 17 0 8 -8 3 -21 -13z"/>
<path d="M2529 2463 c-23 -26 -47 -60 -92 -135 -20 -32 -22 -52 -4 -42 6 4 3
-4 -8 -17 -17 -20 -19 -32 -14 -69 4 -34 6 -38 7 -14 4 68 57 145 175 252 32
28 54 52 48 52 -5 0 -53 -42 -106 -92 -52 -51 -95 -91 -95 -87 0 6 70 112 101
152 11 15 19 27 17 27 -2 0 -15 -12 -29 -27z"/>
<path d="M1844 2448 l-19 -23 23 19 c21 18 27 26 19 26 -2 0 -12 -10 -23 -22z"/>
<path d="M2659 2453 c-13 -16 -12 -17 4 -4 16 13 21 21 13 21 -2 0 -10 -8 -17
-17z"/>
<path d="M2148 2453 c7 -3 16 -2 19 1 4 3 -2 6 -13 5 -11 0 -14 -3 -6 -6z"/>
<path d="M2366 2445 c-11 -8 -17 -17 -14 -20 2 -3 13 4 23 15 21 23 18 25 -9
5z"/>
<path d="M3040 2437 c0 -10 41 -47 90 -81 30 -22 82 -64 114 -95 38 -36 52
-45 38 -26 -28 41 -66 75 -140 124 -34 23 -68 51 -75 62 -10 16 -27 26 -27 16z"/>
<path d="M3290 2435 c0 -9 93 -45 102 -39 6 4 -14 15 -44 25 -61 21 -58 20
-58 14z"/>
<path d="M2079 2419 c-33 -12 -44 -45 -18 -52 19 -5 27 -37 9 -37 -5 0 -10 -5
-10 -11 0 -6 14 1 31 16 18 14 38 24 46 21 8 -4 18 5 24 21 8 22 7 30 -7 40
-21 15 -38 15 -75 2z"/>
<path d="M913 2405 c-19 -21 -16 -24 12 -12 14 7 25 15 25 20 0 12 -24 7 -37
-8z"/>
<path d="M2327 2413 c-4 -3 -7 -11 -7 -17 0 -6 5 -5 12 2 6 6 9 14 7 17 -3 3
-9 2 -12 -2z"/>
<path d="M2856 2404 c-4 -9 -4 -19 -1 -22 2 -3 7 3 11 12 4 9 4 19 1 22 -2 3
-7 -3 -11 -12z"/>
<path d="M1794 2388 l-19 -23 23 19 c21 18 27 26 19 26 -2 0 -12 -10 -23 -22z"/>
<path d="M2620 2388 c-12 -22 -12 -22 6 -6 10 10 15 20 12 24 -4 3 -12 -5 -18
-18z"/>
<path d="M838 2388 c-16 -5 -28 -14 -28 -19 0 -4 7 -6 15 -3 18 7 19 0 4 -27
-24 -46 20 -76 72 -49 30 16 23 26 -16 22 -40 -5 -43 5 -15 41 35 44 24 56
-32 35z"/>
<path d="M1130 2390 c0 -6 -9 -10 -19 -10 -22 0 -38 -19 -24 -29 5 -3 9 -22 9
-40 -1 -27 5 -38 25 -50 16 -9 33 -11 45 -6 17 6 15 9 -13 21 -41 17 -42 36
-3 51 37 14 40 45 5 61 -15 7 -25 8 -25 2z"/>
<path d="M3423 2393 c9 -2 23 -2 30 0 6 3 -1 5 -18 5 -16 0 -22 -2 -12 -5z"/>
<path d="M2990 2340 c12 -16 24 -30 26 -30 3 0 -4 14 -16 30 -12 17 -24 30
-26 30 -3 0 4 -13 16 -30z"/>
<path d="M3344 2298 c33 -61 60 -136 69 -188 4 -22 4 -21 6 6 1 38 -30 133
-64 190 -40 68 -49 62 -11 -8z"/>
<path d="M3528 2283 c52 -52 89 -100 111 -143 17 -36 29 -54 26 -40 -14 51
-90 162 -143 210 -85 76 -81 60 6 -27z"/>
<path d="M2797 2280 c-39 -63 -49 -89 -19 -49 25 33 64 101 60 105 -2 2 -20
-24 -41 -56z"/>
<path d="M1496 2273 c-61 -60 -133 -159 -123 -169 3 -3 15 13 28 37 12 24 54
76 93 116 85 86 86 98 2 16z"/>
<path d="M2302 2295 c0 -16 2 -22 5 -12 2 9 2 23 0 30 -3 6 -5 -1 -5 -18z"/>
<path d="M2577 2313 c-4 -3 -7 -11 -7 -17 0 -6 5 -5 12 2 6 6 9 14 7 17 -3 3
-9 2 -12 -2z"/>
<path d="M2080 2300 c-9 -6 -10 -10 -3 -10 6 0 15 5 18 10 8 12 4 12 -15 0z"/>
<path d="M370 2248 c0 -22 -6 -37 -20 -46 -11 -7 -20 -19 -20 -27 0 -24 31
-31 46 -10 11 14 22 16 61 11 l48 -6 -47 25 c-27 14 -48 28 -48 31 0 3 14 10
30 15 36 13 39 29 6 29 -13 0 -31 3 -40 6 -13 5 -16 -1 -16 -28z"/>
<path d="M2936 2246 c84 -27 240 -100 269 -124 18 -16 19 -16 7 0 -35 45 -221
133 -302 142 -40 5 -38 3 26 -18z"/>
<path d="M1697 2231 c-9 -16 -17 -33 -17 -38 0 -4 9 7 21 26 11 18 18 35 17
37 -2 2 -12 -10 -21 -25z"/>
<path d="M860 2239 c0 -7 -8 -18 -17 -25 -16 -12 -15 -13 11 -14 22 0 27 -4
22 -17 -4 -9 -1 -20 6 -24 9 -6 8 -13 -7 -28 -20 -23 -17 -35 8 -26 18 8 28
42 20 73 -3 12 0 29 7 37 10 12 8 16 -15 25 -33 13 -35 13 -35 -1z"/>
<path d="M2356 2225 c-10 -8 -23 -12 -28 -9 -5 3 -7 0 -6 -8 2 -7 -5 -12 -14
-12 -10 1 -16 -1 -13 -5 2 -4 -5 -20 -16 -37 -26 -40 -25 -124 2 -124 6 0 5 8
-1 19 -24 46 -13 81 46 137 56 55 65 65 30 39z"/>
<path d="M2793 2208 c-48 -32 -50 -35 -28 -35 8 0 15 5 15 10 0 6 9 2 20 -8
18 -16 22 -14 19 13 0 4 -8 6 -17 4 -14 -2 -14 0 3 13 18 14 21 13 42 -9 13
-14 23 -29 23 -34 0 -9 20 -28 109 -105 18 -16 35 -26 39 -23 3 4 -9 19 -28
34 -49 39 -141 134 -148 153 -6 15 -13 13 -49 -13z"/>
<path d="M1140 2220 c0 -5 -7 -10 -15 -10 -8 0 -15 -7 -15 -16 0 -11 6 -15 20
-11 26 7 26 -7 -1 -24 -17 -12 -19 -18 -10 -42 12 -30 45 -37 55 -11 4 10 13
13 26 9 25 -8 25 -2 3 21 -13 13 -14 19 -5 22 17 5 15 22 -3 22 -8 0 -15 7
-15 15 0 8 -9 19 -20 25 -14 7 -20 7 -20 0z"/>
<path d="M2379 2213 c-13 -16 -12 -17 4 -4 9 7 17 15 17 17 0 8 -8 3 -21 -13z"/>
<path d="M1481 2186 c-7 -8 -13 -29 -15 -48 -2 -18 -1 -24 1 -13 3 11 8 25 12
30 10 12 22 45 17 45 -2 0 -9 -6 -15 -14z"/>
<path d="M1930 2165 c-11 -13 -11 -19 3 -32 15 -15 15 -17 -1 -30 -14 -10 -10
-10 18 1 19 7 56 12 82 11 26 -1 45 2 42 7 -9 14 29 9 85 -12 30 -11 56 -18
58 -16 3 3 -27 16 -70 30 -10 3 -15 10 -12 16 3 5 0 10 -7 10 -10 0 -9 3 2 11
12 9 11 10 -5 4 -11 -3 -32 -9 -47 -12 -16 -3 -28 -9 -28 -14 0 -5 -4 -9 -10
-9 -5 0 -9 6 -7 13 1 7 -12 13 -33 15 -19 2 -40 8 -46 13 -7 6 -16 4 -24 -6z"/>
<path d="M2342 2168 c-17 -22 -52 -88 -52 -100 0 -6 8 -4 18 6 11 9 49 20 93
26 l74 9 -77 -4 c-43 -2 -78 -1 -78 1 0 11 23 49 34 56 6 4 8 10 5 13 -4 3
-11 0 -17 -7z"/>
<path d="M3310 2171 c0 -6 4 -13 10 -16 6 -3 7 1 4 9 -7 18 -14 21 -14 7z"/>
<path d="M2780 2159 c0 -5 -4 -7 -10 -4 -5 3 -10 2 -10 -3 0 -5 -9 -12 -20
-15 -11 -3 -20 -1 -20 4 0 6 -12 -2 -27 -16 -15 -14 -31 -25 -36 -25 -4 0 -6
-4 -2 -9 3 -6 32 3 65 20 71 35 73 35 94 7 l17 -23 -11 23 c-8 16 -8 22 2 22
6 0 3 7 -8 15 -23 17 -34 19 -34 4z"/>
<path d="M2373 2145 c0 -8 4 -12 9 -9 5 3 6 10 3 15 -9 13 -12 11 -12 -6z"/>
<path d="M1665 2108 c-22 -12 -67 -27 -100 -34 -58 -11 -58 -12 -19 -13 23 0
59 6 80 15 63 25 104 45 104 49 0 10 -27 3 -65 -17z"/>
<path d="M371 2101 c-25 -19 -22 -41 5 -41 8 0 12 4 9 10 -7 12 42 36 52 26 4
-4 -2 -26 -15 -49 -15 -27 -19 -44 -12 -51 5 -5 11 -8 12 -5 32 51 46 93 37
110 -13 24 -56 24 -88 0z"/>
<path d="M2488 2093 c6 -2 18 -2 25 0 6 3 1 5 -13 5 -14 0 -19 -2 -12 -5z"/>
<path d="M2909 2089 c6 -9 8 -24 5 -33 -6 -15 -8 -15 -20 2 -17 24 -56 33 -72
16 -9 -10 -5 -12 21 -7 30 4 33 2 45 -29 10 -30 9 -40 -7 -74 -21 -43 -20 -54
2 -32 8 8 20 40 27 71 17 75 35 61 45 -35 7 -77 24 -130 46 -144 10 -6 9 -1
-2 17 -9 13 -20 39 -23 57 -6 25 -4 32 8 32 9 0 18 -12 22 -27 14 -65 38 -127
42 -109 2 10 -1 23 -7 29 -16 16 -14 37 4 37 8 0 15 -4 15 -8 0 -5 8 -17 18
-28 25 -28 62 -82 62 -90 0 -3 -11 1 -25 10 -33 21 -52 20 -58 -4 -8 -32 -30
-25 -23 8 4 18 3 22 -3 13 -7 -11 -11 -10 -20 5 -11 18 -12 18 -27 -3 -16 -22
-16 -22 -45 33 -16 30 -27 60 -23 66 4 6 3 8 -4 4 -6 -3 -37 21 -70 54 -56 56
-162 130 -186 130 -6 0 15 -15 47 -32 117 -64 249 -249 336 -473 31 -78 81
-170 136 -246 60 -84 98 -170 108 -244 l4 -30 2 31 c0 17 -10 66 -24 108 -29
88 -28 86 -14 86 5 0 7 -4 4 -10 -15 -24 50 11 75 40 32 38 267 160 307 160
42 0 175 -70 190 -100 13 -25 13 -25 13 -2 0 16 -15 32 -56 58 -32 20 -69 40
-83 44 -17 5 -20 9 -8 9 47 2 156 -68 201 -131 31 -43 32 -59 8 -81 -25 -23
-31 -21 -26 6 4 17 3 18 -4 4 -4 -10 -21 -26 -37 -37 -18 -12 -24 -20 -15 -20
9 0 21 5 28 12 9 9 9 4 2 -22 -8 -27 -7 -38 6 -50 14 -14 15 -12 8 13 -5 24
-1 34 27 63 18 19 38 34 45 34 14 0 70 -76 116 -157 18 -32 36 -59 40 -61 4
-2 8 -8 8 -14 0 -5 9 -23 20 -39 l21 -28 -23 -35 c-26 -40 -44 -45 -53 -17 -3
11 -17 36 -31 56 -13 20 -21 42 -17 48 3 7 -3 4 -14 -6 -17 -14 -25 -16 -49
-7 -16 6 -32 17 -36 23 -4 7 -15 12 -25 12 -13 0 -18 7 -17 28 1 27 1 27 -23
11 -14 -8 -27 -13 -30 -10 -10 10 27 45 51 48 13 2 17 6 9 11 -6 4 -24 -4 -42
-19 -17 -14 -31 -21 -31 -15 0 6 -9 20 -21 32 -20 20 -20 21 -2 34 10 7 15 16
12 20 -7 6 -39 -21 -39 -34 0 -4 9 -19 21 -32 14 -16 17 -25 8 -28 -7 -2 -25
10 -40 27 -15 17 -30 28 -33 25 -3 -4 -6 -1 -6 5 0 7 4 12 9 12 6 0 9 9 8 19
0 11 -6 17 -14 14 -7 -3 -10 -9 -7 -14 3 -5 -8 -17 -25 -27 -17 -9 -31 -23
-31 -29 0 -7 -4 -13 -9 -13 -4 0 -38 -24 -75 -52 -124 -97 -139 -108 -147
-108 -4 0 -13 16 -19 35 -9 27 -17 35 -36 35 -13 0 -26 0 -29 0 -3 0 -5 -3 -5
-7 0 -4 10 -8 22 -8 15 0 28 -12 42 -37 14 -27 23 -35 31 -28 8 7 19 2 35 -15
13 -13 27 -22 33 -18 6 3 7 1 4 -5 -4 -5 -3 -21 2 -34 l10 -23 0 25 c1 45 4
57 15 57 16 0 116 73 143 103 16 18 19 29 12 42 -7 12 -6 18 1 18 6 0 18 7 27
16 14 14 17 13 34 -5 11 -11 36 -25 57 -30 24 -7 45 -22 60 -45 13 -19 23 -38
22 -41 -1 -4 5 -12 14 -18 8 -7 33 -37 56 -67 47 -64 47 -87 -3 -129 -17 -14
-52 -45 -77 -68 -39 -36 -142 -115 -177 -136 -7 -5 -17 10 -27 40 -9 25 -24
55 -33 65 -15 17 -15 20 -3 28 8 6 11 10 5 10 -5 0 4 11 20 25 17 13 24 24 16
25 -9 0 -11 8 -7 25 4 14 2 25 -3 25 -5 0 -8 -14 -7 -31 2 -21 -4 -35 -16 -42
-10 -7 -18 -17 -18 -24 0 -7 -4 -13 -10 -13 -15 0 -7 23 13 38 9 7 17 26 17
41 0 32 -15 42 -68 46 -40 2 -35 -5 10 -14 37 -8 45 -27 25 -55 -28 -38 -146
-25 -123 13 4 6 -2 15 -13 21 -18 9 -20 8 -14 -7 6 -16 5 -16 -10 -4 -32 26
-19 -14 28 -86 25 -37 45 -71 45 -75 0 -4 16 -33 36 -64 34 -53 35 -57 17 -69
-10 -7 -29 -22 -43 -33 -24 -20 -24 -21 -5 -27 64 -22 87 -39 78 -63 -5 -11
-2 -12 13 -3 32 17 85 39 185 75 117 42 160 63 266 132 104 69 165 137 213
239 21 44 44 88 52 99 14 18 15 18 35 -3 22 -24 38 -15 26 15 -5 13 -3 15 8 9
12 -8 12 -6 0 8 -8 10 -11 28 -8 46 5 26 2 31 -46 57 -29 16 -74 38 -102 49
-47 19 -125 63 -125 70 0 2 16 -3 35 -11 19 -8 35 -12 35 -10 0 3 -16 13 -35
22 -19 9 -35 20 -35 25 0 5 -7 9 -15 9 -8 0 -15 -5 -15 -10 0 -6 -12 -2 -27 7
-15 10 -24 13 -21 7 4 -6 52 -41 108 -78 55 -38 104 -75 109 -84 5 -9 13 -14
16 -10 8 7 18 0 71 -50 18 -18 34 -40 34 -50 -1 -12 -9 -8 -30 18 -17 19 -30
38 -30 42 0 4 -5 8 -11 8 -5 0 -7 -5 -3 -12 4 -7 3 -8 -5 -4 -6 4 -8 12 -5 18
4 6 1 9 -7 6 -15 -5 -94 31 -141 63 -35 25 -47 24 -18 -1 23 -20 37 -70 20
-70 -10 0 -50 72 -50 90 0 11 -68 107 -107 150 -13 14 -23 31 -23 38 0 7 -4
10 -10 7 -5 -3 -10 1 -10 9 0 9 6 16 14 16 34 0 30 114 -5 166 -18 25 -20 26
-14 6 6 -21 5 -22 -12 -14 -32 17 -73 64 -66 75 3 5 2 7 -4 4 -6 -4 -39 19
-73 51 -45 40 -70 56 -86 54 -25 -4 -81 23 -100 47 -6 7 -25 14 -42 15 -33 1
-116 62 -106 77 3 5 -10 13 -28 18 l-33 9 30 1 c46 1 110 -16 175 -48 65 -31
79 -28 27 5 -60 39 -155 64 -242 64 -84 0 -92 4 -144 66 -12 14 -30 16 -115
13 -98 -4 -101 -3 -104 18 -2 13 -14 31 -26 41 -15 11 -26 34 -31 61 -4 27
-18 54 -37 75 -17 17 -25 24 -19 15z m349 -258 c26 -26 55 -43 94 -55 71 -20
126 -63 191 -146 28 -36 42 -58 32 -50 -41 31 -69 43 -73 31 -2 -7 -15 -2 -34
14 -40 34 -48 32 -41 -10 4 -27 2 -35 -9 -35 -21 0 -41 44 -47 102 -1 4 -26
20 -57 35 -31 15 -59 33 -61 40 -3 7 -19 13 -35 13 -24 0 -29 3 -24 17 6 15 5
16 -11 1 -24 -21 -52 -10 -86 35 -31 42 -28 44 65 46 54 1 60 -1 96 -38z m-60
-96 c-1 -1 -14 2 -28 7 -24 10 -24 11 -5 18 13 5 23 3 28 -7 5 -8 7 -16 5 -18z
m38 -82 c32 -43 67 -95 77 -115 11 -21 23 -38 28 -38 15 0 10 -19 -11 -40 -21
-21 -50 -27 -50 -9 0 5 4 7 10 4 6 -3 7 1 4 9 -3 9 -10 16 -15 16 -15 0 -139
-82 -139 -93 0 -5 23 8 52 28 l51 37 19 -23 c10 -13 30 -43 44 -66 23 -39 27
-41 51 -32 23 8 24 8 13 -6 -7 -8 -19 -15 -26 -15 -8 0 -14 -4 -14 -8 0 -5
-11 -14 -25 -20 -15 -7 -25 -8 -25 -2 0 6 -9 1 -20 -10 -11 -11 -24 -20 -28
-20 -10 0 -82 101 -106 148 -20 38 -15 64 11 61 31 -3 47 1 67 16 29 22 14 27
-26 11 -42 -18 -98 -18 -98 0 0 9 28 15 90 20 50 3 89 9 86 11 -9 9 -171 9
-183 0 -19 -14 -16 -2 21 102 51 138 61 141 142 34z m-136 15 c-1 -22 -24 -43
-47 -44 -28 -1 -29 4 -1 33 23 25 48 30 48 11z m-31 -70 c0 -7 -4 -22 -9 -33
-7 -16 -8 -14 -7 12 1 18 5 33 10 33 4 0 7 -6 6 -12z m697 -94 c25 -23 35 -37
26 -41 -6 -2 -10 -9 -6 -14 7 -12 -18 -11 -53 2 -20 7 -24 12 -14 19 9 5 12
18 8 39 -4 17 -5 31 -3 31 2 0 21 -16 42 -36z m-343 -145 c-18 -18 -93 -23
-93 -7 0 9 17 14 52 16 40 2 49 -1 41 -9z m559 -396 c21 6 66 -49 74 -91 5
-23 1 -32 -20 -45 -24 -16 -26 -16 -34 1 -5 9 -7 23 -5 29 3 7 -7 17 -21 23
-14 5 -26 13 -26 18 0 5 -16 27 -36 50 l-35 42 43 -16 c24 -8 51 -13 60 -11z
m-387 7 c3 -6 -1 -7 -9 -4 -9 3 -16 2 -16 -4 0 -5 -8 -13 -17 -16 -15 -6 -15
-4 2 14 20 22 31 25 40 10z m716 -50 c31 -26 15 -26 -18 0 -14 11 -21 20 -15
20 5 0 20 -9 33 -20z m-59 -172 c-8 -35 -88 -132 -135 -165 -66 -46 -75 -48
-32 -7 42 41 87 99 81 105 -2 2 8 15 22 29 13 14 22 19 18 13 -4 -7 -4 -13 1
-13 4 0 16 14 25 30 20 36 28 39 20 8z m-745 -79 c2 -21 1 -21 -12 -3 -18 24
-19 35 -2 28 7 -2 13 -14 14 -25z m68 3 c6 -4 19 -20 30 -36 66 -95 66 -97 29
-131 -31 -29 -44 -31 -44 -9 0 9 5 13 13 9 6 -4 4 0 -5 8 -10 8 -15 16 -13 19
7 6 -33 95 -45 103 -14 9 -12 -8 2 -25 7 -8 4 -7 -6 2 -17 15 -18 21 -8 43 12
25 28 31 47 17z"/>
<path d="M3142 1600 c0 -14 2 -19 5 -12 2 6 2 18 0 25 -3 6 -5 1 -5 -13z"/>
<path d="M3131 1554 c0 -11 3 -14 6 -6 3 7 2 16 -1 19 -3 4 -6 -2 -5 -13z"/>
<path d="M3120 1440 c0 -5 5 -10 11 -10 5 0 7 5 4 10 -3 6 -8 10 -11 10 -2 0
-4 -4 -4 -10z"/>
<path d="M4191 694 c0 -11 3 -14 6 -6 3 7 2 16 -1 19 -3 4 -6 -2 -5 -13z"/>
<path d="M2538 2083 c7 -3 16 -2 19 1 4 3 -2 6 -13 5 -11 0 -14 -3 -6 -6z"/>
<path d="M3046 2082 c-7 -11 6 -27 27 -35 9 -3 17 -12 17 -19 0 -8 -3 -9 -8
-3 -13 18 -33 16 -30 -2 4 -21 47 -48 103 -64 22 -6 48 -18 58 -27 9 -8 20
-12 24 -9 11 12 -28 46 -85 75 -29 15 -47 28 -39 30 9 2 29 -4 46 -13 27 -13
30 -13 25 0 -4 8 -14 15 -24 15 -9 0 -28 8 -41 18 -41 29 -68 42 -73 34z"/>
<path d="M856 2058 c-9 -12 -16 -32 -16 -43 0 -23 26 -65 40 -65 14 0 40 67
40 101 0 24 -4 29 -24 29 -14 0 -32 -10 -40 -22z m36 -59 l-9 -34 -12 29 c-10
24 -9 33 6 55 17 25 18 25 21 5 2 -12 -1 -37 -6 -55z"/>
<path d="M1460 2067 c0 -10 8 -17 18 -17 9 0 13 4 7 8 -5 4 -13 11 -17 16 -5
5 -8 2 -8 -7z"/>
<path d="M2020 2071 c8 -6 28 -11 44 -11 39 0 31 6 -19 14 -29 5 -36 4 -25 -3z"/>
<path d="M2580 2070 c20 -13 33 -13 25 0 -3 6 -14 10 -23 10 -15 0 -15 -2 -2
-10z"/>
<path d="M3660 2071 c-14 -4 20 -6 75 -3 118 5 201 -8 270 -44 31 -16 44 -19
34 -9 -9 9 -46 27 -83 41 -56 20 -84 24 -169 23 -56 -1 -113 -4 -127 -8z"/>
<path d="M3415 2050 l-70 -6 80 -1 c44 -1 105 2 135 7 l55 7 -65 0 c-36 0 -96
-3 -135 -7z"/>
<path d="M1172 2030 c-16 -25 -15 -30 3 -30 17 0 20 -25 5 -35 -5 -3 -10 -13
-10 -21 0 -16 36 -19 45 -4 3 6 16 10 28 11 l22 0 -22 11 c-12 6 -25 23 -28
39 -9 40 -28 53 -43 29z"/>
<path d="M1100 2011 c0 -32 21 -81 35 -81 22 0 28 19 11 36 -9 8 -16 26 -16
40 0 15 -6 24 -15 24 -8 0 -15 -8 -15 -19z"/>
<path d="M3225 2000 c-9 -15 37 -40 75 -40 35 0 35 0 10 13 -57 28 -80 36 -85
27z"/>
<path d="M1658 1993 c7 -3 16 -2 19 1 4 3 -2 6 -13 5 -11 0 -14 -3 -6 -6z"/>
<path d="M4084 1972 c16 -17 32 -30 34 -27 5 4 -12 22 -43 45 -11 8 -7 0 9
-18z"/>
<path d="M3077 1969 c7 -7 15 -10 18 -7 3 3 -2 9 -12 12 -14 6 -15 5 -6 -5z"/>
<path d="M3056 1957 c3 -10 9 -15 12 -12 3 3 0 11 -7 18 -10 9 -11 8 -5 -6z"/>
<path d="M3661 1962 c-6 -2 -11 -8 -11 -14 0 -6 -9 -19 -20 -28 -20 -18 -12
-38 10 -25 6 3 10 2 10 -4 0 -13 61 -46 78 -42 7 1 22 10 34 19 54 45 62 62
28 62 -11 0 -20 4 -20 8 0 9 -92 30 -109 24z"/>
<path d="M397 1954 c-9 -10 2 -24 19 -24 8 0 14 7 14 15 0 15 -21 21 -33 9z"/>
<path d="M3252 1937 c2 -12 7 -28 11 -34 5 -7 5 -19 2 -25 -4 -7 1 -4 9 6 14
18 20 18 58 7 23 -7 56 -14 73 -16 16 -2 59 -6 95 -10 36 -3 75 -13 88 -21 12
-8 22 -11 22 -7 0 9 -100 63 -115 63 -6 0 -3 -5 5 -10 23 -15 -4 -12 -34 3
-14 8 -22 18 -18 23 4 4 -1 2 -11 -5 -15 -12 -20 -11 -37 4 -11 10 -26 15 -35
11 -9 -3 -26 -1 -37 5 -11 6 -34 15 -50 19 -26 8 -28 7 -26 -13z"/>
<path d="M3891 1946 c-7 -8 -21 -12 -31 -9 -44 12 -16 -14 49 -45 70 -32 141
-94 141 -122 0 -9 -11 -2 -26 18 -31 39 -94 83 -152 105 -36 14 -43 15 -48 3
-3 -8 -19 -20 -35 -26 -16 -7 -34 -21 -39 -30 -8 -15 -5 -19 16 -24 18 -5 24
-12 20 -23 -4 -10 -2 -14 8 -10 10 4 13 1 10 -7 -3 -7 3 -19 12 -27 12 -9 15
-10 10 -1 -4 7 -2 12 4 12 6 0 8 4 5 10 -4 6 1 7 12 4 51 -17 98 -48 132 -88
9 -10 25 -27 36 -38 18 -17 20 -18 23 -3 2 9 -6 27 -18 40 -26 28 -24 57 2 31
23 -22 53 -22 43 2 -5 9 -7 45 -6 80 2 52 -1 63 -16 68 -50 16 -94 41 -99 57
-8 26 -39 40 -53 23z"/>
<path d="M855 1899 c-14 -45 55 -58 71 -14 10 24 -5 31 -20 9 -8 -10 -18 -16
-22 -12 -4 4 -1 14 6 23 10 13 9 15 -8 15 -12 0 -23 -9 -27 -21z"/>
<path d="M1380 1883 l-25 -26 25 6 c14 4 30 7 37 7 6 0 9 9 6 20 -7 26 -13 25
-43 -7z"/>
<path d="M2892 1890 c0 -14 2 -19 5 -12 2 6 2 18 0 25 -3 6 -5 1 -5 -13z"/>
<path d="M2650 1891 c0 -6 4 -13 10 -16 6 -3 7 1 4 9 -7 18 -14 21 -14 7z"/>
<path d="M1253 1860 c-18 -11 -33 -22 -33 -25 0 -2 16 5 35 16 19 12 35 23 35
25 0 6 -3 5 -37 -16z"/>
<path d="M4084 1855 c-6 -26 1 -174 12 -252 5 -35 2 -48 -17 -72 -13 -17 -30
-30 -36 -30 -7 -1 -13 -5 -13 -11 0 -13 31 -1 53 21 33 35 38 64 21 146 -10
49 -15 104 -12 150 5 76 3 90 -8 48z"/>
<path d="M3357 1837 c-14 -21 -13 -23 7 -24 11 -1 15 1 9 4 -9 3 -10 10 -3 24
15 27 5 24 -13 -4z"/>
<path d="M1574 1826 c-3 -14 -2 -32 4 -41 8 -16 9 -16 15 -1 4 10 3 15 -3 11
-14 -9 -12 29 2 43 9 9 9 12 0 12 -6 0 -14 -11 -18 -24z"/>
<path d="M1180 1819 c-27 -11 -70 -48 -70 -60 0 -4 14 6 31 22 17 16 37 29 44
29 8 0 17 5 20 10 7 12 7 12 -25 -1z"/>
<path d="M2891 1784 c0 -11 3 -14 6 -6 3 7 2 16 -1 19 -3 4 -6 -2 -5 -13z"/>
<path d="M1199 1768 c-23 -19 -59 -86 -59 -109 0 -10 -4 -19 -10 -19 -5 0 -2
-19 7 -42 9 -24 19 -63 23 -88 l7 -45 1 45 c1 25 -3 64 -7 88 -9 44 9 136 22
115 4 -6 1 -23 -7 -38 -13 -24 -12 -31 3 -59 20 -35 38 -42 63 -23 15 12 15
17 -2 67 -11 30 -24 54 -29 53 -6 -2 -7 5 -4 14 5 12 3 14 -8 8 -8 -4 -4 2 9
14 12 12 22 24 22 26 0 9 -16 5 -31 -7z"/>
<path d="M2511 1768 c-1 -13 -10 -18 -33 -19 -18 -1 -25 -3 -16 -6 14 -4 18
-19 21 -86 l3 -82 2 83 c2 84 15 108 27 50 9 -41 41 -97 69 -120 20 -17 17
-18 -81 -18 -115 0 -108 -6 -117 90 -2 25 -3 15 -2 -23 1 -60 -1 -67 -19 -68
-15 -1 -16 -2 -4 -6 12 -3 19 -21 24 -66 8 -79 23 -99 71 -99 49 0 80 33 96
100 l13 52 45 0 45 0 -37 25 c-40 27 -94 124 -84 150 3 8 1 15 -4 15 -5 0 -11
10 -13 23 -3 14 -5 16 -6 5z m-11 -268 c8 13 10 12 10 -4 0 -19 0 -19 14 -1
13 18 13 17 11 -9 -5 -38 -42 -76 -76 -76 -30 0 -43 13 -53 54 -7 28 -7 29 28
23 29 -5 36 -3 36 11 0 15 2 15 10 2 9 -13 11 -13 20 0z"/>
<path d="M1280 1751 c0 -18 -4 -21 -22 -17 -13 3 -17 3 -10 0 6 -3 12 -10 12
-15 0 -6 -4 -7 -10 -4 -5 3 -10 -1 -10 -10 0 -21 30 -78 37 -71 3 3 14 -5 25
-17 18 -20 19 -20 12 -2 -4 11 -10 47 -12 80 -4 58 -22 104 -22 56z"/>
<path d="M2692 1750 c0 -14 2 -19 5 -12 2 6 2 18 0 25 -3 6 -5 1 -5 -13z"/>
<path d="M2091 1748 c-1 -9 -13 -23 -28 -30 -14 -7 -29 -20 -31 -28 -5 -13 -3
-13 13 0 10 8 28 20 40 25 18 8 21 15 15 30 -7 16 -9 17 -9 3z"/>
<path d="M1102 1715 c0 -16 2 -22 5 -12 2 9 2 23 0 30 -3 6 -5 -1 -5 -18z"/>
<path d="M3785 1670 c21 -22 41 -40 44 -40 3 0 -13 18 -34 40 -21 22 -41 40
-44 40 -3 0 13 -18 34 -40z"/>
<path d="M2926 1680 c3 -14 10 -32 15 -40 7 -13 8 -13 8 0 0 8 -6 26 -15 40
l-15 25 7 -25z"/>
<path d="M2702 1660 c0 -19 2 -27 5 -17 2 9 2 25 0 35 -3 9 -5 1 -5 -18z"/>
<path d="M1542 1650 c0 -14 2 -19 5 -12 2 6 2 18 0 25 -3 6 -5 1 -5 -13z"/>
<path d="M1899 1644 c-14 -27 -18 -131 -6 -188 7 -37 -1 -60 -17 -47 -8 7 -28
5 -61 -4 -67 -21 -78 -20 -65 4 7 14 20 19 47 19 81 -1 91 3 42 18 -41 12 -49
19 -64 56 l-17 43 44 39 c39 36 40 38 10 20 -60 -34 -135 -154 -117 -185 4 -5
2 -9 -3 -9 -10 0 -42 42 -71 95 -40 72 -71 120 -71 110 0 -5 9 -25 20 -43 26
-42 25 -43 -6 -32 -40 16 -42 11 -4 -10 19 -11 32 -20 28 -21 -23 -5 -34 -4
-39 4 -4 5 -9 5 -12 0 -6 -9 56 -83 68 -83 3 0 5 9 5 20 0 24 15 27 24 4 12
-31 5 -41 -41 -62 -61 -28 -77 -38 -134 -85 -26 -20 -60 -43 -75 -50 -16 -6
-29 -17 -29 -24 0 -6 -25 -38 -56 -70 -30 -32 -70 -80 -89 -108 -38 -57 -26
-47 51 45 60 73 88 101 158 159 56 47 219 151 235 151 6 0 22 -9 36 -20 33
-26 90 -25 140 0 22 11 40 18 40 14 0 -12 -96 -98 -145 -130 -54 -34 -131 -94
-122 -94 3 0 57 35 120 79 l115 78 -26 -48 c-13 -27 -28 -49 -33 -49 -4 0 -32
-24 -61 -54 -58 -59 -135 -115 -185 -135 -44 -18 -57 -35 -44 -58 17 -32 0
-44 -43 -31 -30 9 -42 9 -59 -1 -18 -12 -23 -10 -46 18 -14 17 -32 31 -38 31
-12 0 -17 13 -14 33 1 5 -3 6 -9 2 -15 -9 31 -90 87 -154 24 -28 49 -48 55
-45 6 4 9 3 5 -2 -3 -5 1 -18 9 -29 8 -10 14 -15 14 -9 0 5 4 3 8 -3 4 -7 30
-29 57 -49 62 -45 32 -37 -41 12 -30 20 -51 40 -48 45 3 5 2 8 -3 7 -15 -5
-104 85 -124 125 -11 20 -22 37 -24 37 -15 0 44 -90 88 -138 57 -60 179 -137
202 -129 8 4 18 0 22 -8 5 -8 27 -21 50 -29 36 -13 41 -13 36 0 -3 8 -1 20 5
27 19 24 12 74 -14 98 -30 28 -30 37 1 51 14 6 25 19 25 29 0 16 7 18 44 15
61 -6 80 9 65 52 -17 50 -4 106 52 216 28 54 48 100 46 102 -2 2 -19 -25 -37
-61 -18 -36 -37 -65 -41 -65 -5 0 -7 30 -5 68 2 59 7 74 43 127 22 33 43 68
46 78 4 10 12 15 18 12 6 -4 3 8 -7 26 -22 42 -25 168 -5 193 8 9 12 19 9 21
-3 3 -11 -7 -19 -21z m-119 -185 c17 -17 24 -29 15 -25 -9 3 -21 6 -26 6 -6 0
-8 4 -4 9 3 5 1 12 -5 16 -5 3 -10 -2 -10 -12 0 -15 -2 -16 -10 -3 -12 19 -13
40 -1 40 5 0 24 -14 41 -31z m-45 -59 c-10 -17 -25 -1 -25 28 l0 26 16 -22 c8
-12 12 -27 9 -32z m55 -450 c0 -6 -6 -13 -14 -16 -8 -3 -12 -12 -9 -21 5 -13
3 -13 -15 -4 -11 6 -29 8 -39 5 -10 -4 -2 5 17 19 37 28 60 34 60 17z"/>
<path d="M1653 1653 c20 -2 54 -2 75 0 20 2 3 4 -38 4 -41 0 -58 -2 -37 -4z"/>
<path d="M1685 1620 l-30 -8 35 0 c19 0 49 4 65 8 l30 8 -35 0 c-19 0 -48 -4
-65 -8z"/>
<path d="M2951 1604 c0 -11 3 -14 6 -6 3 7 2 16 -1 19 -3 4 -6 -2 -5 -13z"/>
<path d="M3820 1616 c0 -2 12 -17 28 -33 15 -15 40 -44 56 -63 15 -19 23 -26
18 -15 -6 11 -10 23 -11 28 -2 20 -91 101 -91 83z"/>
<path d="M1728 1583 c7 -3 16 -2 19 1 4 3 -2 6 -13 5 -11 0 -14 -3 -6 -6z"/>
<path d="M2190 1587 c0 -14 39 -94 51 -104 8 -6 28 -14 44 -18 30 -7 30 -7 -5
12 -21 12 -44 37 -57 62 -22 44 -33 59 -33 48z"/>
<path d="M1678 1573 c6 -2 18 -2 25 0 6 3 1 5 -13 5 -14 0 -19 -2 -12 -5z"/>
<path d="M2962 1565 c-1 -11 3 -38 7 -60 7 -34 9 -35 9 -10 0 35 -15 101 -16
70z"/>
<path d="M1448 1563 c12 -2 30 -2 40 0 9 3 -1 5 -23 4 -22 0 -30 -2 -17 -4z"/>
<path d="M2692 1557 c0 -7 -3 -32 -6 -57 l-6 -45 18 35 c29 59 82 46 82 -21 0
-50 -158 -199 -210 -199 -10 0 -41 -23 -68 -50 -32 -32 -52 -46 -55 -38 -2 7
-2 -9 1 -37 2 -27 13 -62 23 -77 11 -14 19 -43 20 -65 0 -35 1 -36 10 -14 9
23 7 38 -16 94 -6 15 0 17 58 17 l65 0 15 -37 c9 -21 16 -30 16 -20 2 36 -28
77 -55 77 -14 0 -22 4 -19 10 9 14 62 12 68 -2 4 -9 8 -9 14 -3 4 6 13 11 18
11 6 1 27 4 47 8 24 4 39 2 44 -5 10 -17 -25 -40 -45 -30 -13 8 -71 4 -71 -4
0 -1 14 -29 31 -61 17 -32 28 -49 26 -37 -4 19 -2 21 11 14 10 -5 17 -27 20
-56 2 -33 0 -45 -8 -40 -7 5 -9 -2 -4 -22 6 -28 6 -28 -13 -8 -11 11 -28 42
-37 68 -10 26 -23 46 -30 44 -6 -2 -16 12 -22 32 -11 35 -11 35 -10 -21 1 -31
4 -54 8 -52 3 2 14 -27 24 -65 10 -38 21 -68 24 -66 3 2 5 -9 5 -23 1 -15 4
-52 9 -82 l8 -55 -21 37 c-12 21 -21 52 -21 69 0 17 -4 28 -10 24 -6 -3 -10 5
-10 19 0 19 -4 24 -16 19 -12 -4 -14 0 -9 23 5 27 5 26 -11 -6 -22 -46 -23
-107 -2 -150 56 -120 68 -152 68 -193 0 -31 6 -49 19 -61 11 -10 17 -24 14
-32 -7 -18 -122 -18 -173 -1 -37 13 -37 11 -30 107 1 19 -10 69 -25 110 l-27
75 17 88 c9 49 15 91 12 93 -2 2 -12 -23 -22 -56 -10 -33 -21 -60 -25 -60 -4
0 -6 -12 -3 -27 3 -26 3 -27 -6 -5 -16 35 -21 27 -21 -33 0 -35 4 -55 12 -55
21 0 68 -63 68 -92 0 -28 -9 -33 -53 -30 -17 2 -17 1 -3 -14 9 -8 16 -22 16
-31 0 -9 6 -13 15 -9 10 4 15 -1 15 -16 0 -20 -1 -20 -33 5 -19 14 -51 35 -73
47 -21 12 -54 31 -71 42 -18 11 -33 15 -33 9 0 -5 10 -13 23 -18 16 -6 0 -10
-58 -14 l-80 -6 88 0 87 0 98 -65 c53 -36 117 -77 142 -92 l45 -27 -30 27 -30
27 43 -7 c28 -4 53 -16 70 -34 27 -28 27 -29 10 -57 -9 -16 -15 -31 -13 -33 7
-7 29 20 70 86 27 44 41 59 47 50 4 -8 6 0 2 18 -5 25 -1 33 21 48 14 10 35
26 46 37 14 14 35 20 70 22 l51 2 44 -100 c25 -55 51 -113 59 -130 7 -16 21
-55 31 -85 10 -30 19 -49 21 -43 2 5 -10 48 -26 93 -17 45 -28 87 -24 93 3 5
2 7 -3 4 -6 -3 -15 6 -20 21 l-11 28 45 -23 c25 -13 51 -23 59 -23 7 0 13 -7
13 -16 0 -15 -2 -15 -25 0 -15 10 -25 12 -25 6 0 -6 -4 -9 -9 -6 -13 8 -8 -27
5 -39 6 -5 17 -31 24 -58 7 -26 17 -47 21 -47 5 0 9 -7 9 -15 0 -8 7 -15 15
-15 8 0 15 -7 15 -16 0 -13 3 -14 15 -4 8 6 18 9 23 6 6 -3 12 3 15 14 3 11 1
23 -4 26 -5 3 -9 13 -9 22 0 11 6 6 15 -12 16 -31 20 -56 8 -56 -12 -1 -76
-61 -70 -66 3 -3 38 17 78 44 41 28 120 71 177 97 96 44 105 46 135 34 18 -7
66 -45 107 -83 79 -75 126 -107 157 -105 12 0 9 4 -9 9 -38 11 -84 44 -153
110 -86 82 -166 126 -267 144 -46 9 -96 18 -113 22 -23 4 -26 3 -15 -5 21 -15
6 -13 -84 9 -168 43 -210 102 -215 303 -1 56 2 88 9 92 9 5 10 1 5 -15 -6 -17
-4 -22 6 -17 8 3 21 8 30 12 13 5 19 -9 34 -84 12 -59 22 -87 28 -79 5 8 6 5
2 -10 -13 -45 36 -143 88 -176 19 -13 34 -11 117 10 52 13 102 24 112 24 16 0
16 3 2 42 -8 22 -12 43 -10 45 2 2 -11 19 -30 37 -28 28 -93 137 -94 157 0 4
8 9 18 13 45 15 75 44 67 65 -5 11 -3 12 10 1 9 -7 19 -10 23 -6 4 4 -1 12
-11 17 -10 6 -17 22 -17 38 0 15 -6 36 -14 46 -10 14 -11 27 -5 45 8 23 8 24
-5 6 -14 -17 -15 -14 -19 30 -4 42 -4 41 -2 -8 1 -39 7 -64 19 -77 17 -18 16
-19 -15 -26 -27 -6 -29 -9 -16 -17 26 -14 20 -36 -13 -53 -42 -22 -51 -19 -98
25 -22 22 -46 40 -52 40 -5 0 -10 5 -10 11 0 5 4 8 8 5 4 -2 8 4 8 15 0 10 -1
19 -2 19 -1 0 -18 -21 -38 -47 -26 -34 -35 -54 -32 -69 7 -25 -2 -54 -15 -54
-4 0 -6 6 -3 14 3 8 0 25 -7 38 -7 13 -12 27 -11 31 2 5 -9 0 -24 -12 -15 -12
-33 -21 -40 -21 -17 0 -26 -32 -19 -63 4 -14 2 -28 -4 -31 -12 -8 -15 10 -12
59 1 21 -1 26 -7 16 -10 -14 -32 -7 -32 11 0 6 -16 44 -35 85 -39 84 -41 99
-20 150 8 19 14 50 14 67 -1 17 -3 23 -6 14 -3 -12 -12 -16 -26 -14 -27 4 -26
43 2 66 26 21 35 65 16 84 -8 8 -15 19 -15 24 0 6 -17 13 -38 17 -59 10 -195
-38 -244 -86 -21 -20 -38 -42 -38 -48 0 -6 -7 -11 -16 -11 -11 0 -14 6 -8 23
27 86 129 140 294 157 l75 8 -81 -2 -81 -1 21 27 c11 15 26 27 32 27 23 2 64
76 64 118 0 49 -18 67 -60 61 -23 -3 -29 -1 -26 8 3 8 2 16 -3 18 -4 3 -8 0
-9 -7z m36 -506 c3 -10 0 -10 -17 -2 -25 14 -27 20 -4 17 9 -2 19 -8 21 -15z
m72 -100 c0 -10 7 -34 15 -54 13 -30 13 -42 0 -84 -7 -26 -16 -59 -18 -73 -3
-14 -3 10 0 53 4 53 2 77 -6 77 -7 0 -11 20 -11 50 0 28 5 50 10 50 6 0 10 -8
10 -19z m-213 -153 c-3 -8 -6 -5 -6 6 -1 11 2 17 5 13 3 -3 4 -12 1 -19z m20
0 c-3 -8 -6 -5 -6 6 -1 11 2 17 5 13 3 -3 4 -12 1 -19z m413 -23 c0 -8 -6 -15
-14 -15 -20 0 -29 17 -14 23 22 9 28 7 28 -8z m-433 -27 c-3 -8 -6 -5 -6 6 -1
11 2 17 5 13 3 -3 4 -12 1 -19z m469 -86 c2 -40 1 -42 -6 -17 -10 41 -11 65
-2 65 4 0 8 -21 8 -48z m-116 -55 c0 -10 -4 -15 -10 -12 -5 3 -10 18 -10 33 0
21 2 24 10 12 5 -8 10 -23 10 -33z m249 -301 c10 -12 8 -13 -8 -9 -12 3 -21 9
-21 14 0 14 16 11 29 -5z"/>
<path d="M1251 1541 c-11 -7 -9 -11 8 -20 21 -12 27 -6 13 16 -5 7 -13 9 -21
4z"/>
<path d="M1303 1531 c1 -15 8 -19 29 -19 33 1 35 6 11 24 -26 19 -42 17 -40
-5z"/>
<path d="M2101 1529 c-53 -18 -88 -38 -44 -25 18 6 23 3 28 -18 3 -14 7 -37
10 -51 6 -29 38 -49 65 -40 17 5 20 15 20 64 0 31 -6 64 -12 73 -12 14 -18 14
-67 -3z m59 -123 c-15 -15 -42 4 -51 37 -7 26 11 44 31 32 5 -3 12 0 17 7 5 8
9 -1 11 -26 2 -21 -2 -44 -8 -50z"/>
<path d="M2336 1535 c4 -8 11 -15 16 -15 6 0 5 6 -2 15 -7 8 -14 15 -16 15 -2
0 -1 -7 2 -15z"/>
<path d="M1960 1511 c5 -11 15 -23 21 -27 6 -3 3 5 -6 20 -20 30 -30 35 -15 7z"/>
<path d="M1990 1521 c0 -6 4 -13 10 -16 6 -3 7 1 4 9 -7 18 -14 21 -14 7z"/>
<path d="M1472 1501 c-8 -4 -14 -12 -15 -17 -1 -5 -11 -9 -22 -9 -44 0 -49
-16 -14 -46 19 -16 38 -29 42 -29 5 0 5 -5 1 -11 -4 -7 0 -9 12 -5 11 3 34 8
52 10 61 7 63 22 10 85 -27 32 -43 37 -66 22z"/>
<path d="M3950 1506 c0 -2 7 -7 16 -10 8 -3 12 -2 9 4 -6 10 -25 14 -25 6z"/>
<path d="M2015 1480 c3 -5 8 -10 11 -10 2 0 4 5 4 10 0 6 -5 10 -11 10 -5 0
-7 -4 -4 -10z"/>
<path d="M2059 1414 c10 -29 17 -39 19 -27 4 24 -14 73 -27 73 -4 0 -1 -21 8
-46z"/>
<path d="M2328 1453 c7 -3 16 -2 19 1 4 3 -2 6 -13 5 -11 0 -14 -3 -6 -6z"/>
<path d="M2614 1438 l-19 -23 23 19 c21 18 27 26 19 26 -2 0 -12 -10 -23 -22z"/>
<path d="M2961 1445 c0 -11 -8 -31 -17 -43 -9 -13 -14 -26 -11 -29 9 -8 39 57
34 75 -4 13 -5 13 -6 -3z"/>
<path d="M1230 1386 c0 -3 9 -10 20 -16 11 -6 20 -8 20 -6 0 3 -9 10 -20 16
-11 6 -20 8 -20 6z"/>
<path d="M2576 1363 c-6 -14 -5 -15 5 -6 7 7 10 15 7 18 -3 3 -9 -2 -12 -12z"/>
<path d="M2041 1349 c-1 -9 -12 -24 -25 -32 -14 -10 -25 -29 -28 -48 -5 -29
-4 -30 9 -14 12 18 13 17 13 -6 0 -14 -4 -29 -9 -34 -6 -6 -12 -23 -15 -40 -3
-19 -23 -46 -54 -75 -46 -43 -59 -66 -98 -173 -9 -26 -26 -57 -38 -70 -43 -47
-76 -96 -76 -114 0 -10 11 -42 25 -71 14 -30 22 -59 18 -65 -3 -5 -1 -7 5 -3
5 3 20 -9 31 -28 18 -28 19 -38 10 -65 -6 -18 -9 -35 -5 -38 3 -3 9 8 12 25 4
18 10 29 15 26 15 -9 11 0 -41 101 -27 53 -50 105 -50 115 0 17 40 76 77 115
11 12 30 54 42 95 23 75 60 145 48 90 -6 -23 -5 -24 8 -6 8 10 16 22 17 25 7
15 67 51 89 53 l24 3 -4 -165 c-2 -143 -6 -174 -27 -234 -15 -43 -23 -89 -23
-120 l2 -51 7 55 c9 65 15 92 28 117 5 10 15 40 21 68 10 38 24 61 61 97 26
27 55 64 64 83 9 19 21 35 26 35 13 0 12 -7 0 -30 -8 -16 -8 -18 5 -14 8 4 15
10 15 14 0 5 3 16 7 26 4 11 3 15 -5 11 -6 -4 -12 0 -14 9 -2 11 -15 -1 -41
-37 -37 -54 -103 -129 -112 -129 -9 0 -5 175 6 212 6 25 22 46 45 62 20 13 42
33 50 45 13 18 13 23 -2 46 -21 33 -6 73 38 98 17 10 28 20 25 23 -8 9 -77
-46 -77 -61 0 -7 -5 -15 -10 -17 -6 -2 -3 -18 9 -40 16 -32 17 -39 4 -49 -8
-7 -17 -8 -22 -3 -15 15 -70 128 -65 133 2 2 16 -6 31 -20 l28 -24 -20 25
c-11 14 -23 27 -27 30 -4 3 -11 17 -17 30 -6 16 -10 19 -10 9z m7 -65 c9 -18
9 -31 1 -45 -13 -25 -16 -22 -22 16 -3 18 -10 29 -17 27 -11 -3 -11 0 0 12 17
22 25 20 38 -10z m50 -98 l21 -35 -26 -16 c-18 -12 -28 -14 -36 -6 -8 8 -8 11
1 11 10 0 10 5 2 21 -13 23 -5 73 9 64 5 -3 18 -20 29 -39z m-108 -60 c0 -2
-8 -10 -17 -17 -16 -13 -17 -12 -4 4 13 16 21 21 21 13z"/>
<path d="M2894 1338 l-19 -23 23 19 c12 11 22 21 22 23 0 8 -8 2 -26 -19z"/>
<path d="M2240 1324 c-13 -13 -30 -24 -37 -24 -7 0 -13 -7 -13 -16 0 -13 8
-15 35 -12 32 4 40 -2 36 -24 -3 -18 19 -6 38 21 26 35 26 47 4 57 -14 6 -11
9 17 14 34 7 34 7 -10 8 -35 1 -51 -5 -70 -24z"/>
<path d="M2366 1303 c3 -21 10 -40 16 -44 15 -9 4 -23 -36 -47 -21 -13 -38
-17 -45 -11 -8 6 -8 5 -1 -3 6 -7 10 -16 10 -20 0 -17 -22 -7 -47 22 -13 17
-32 30 -41 29 -14 0 -14 -2 -2 -6 18 -7 50 -42 50 -55 0 -14 50 -9 56 6 3 7
23 21 44 31 34 15 42 16 57 4 11 -9 14 -10 9 -1 -5 8 0 12 16 13 l23 0 -23 10
c-13 5 -28 7 -33 3 -13 -7 -11 20 2 33 16 16 -16 73 -41 73 -16 0 -18 -6 -14
-37z"/>
<path d="M2530 1309 c-6 -11 -10 -25 -8 -30 2 -5 8 4 15 21 13 34 9 40 -7 9z"/>
<path d="M2551 1294 c0 -11 3 -14 6 -6 3 7 2 16 -1 19 -3 4 -6 -2 -5 -13z"/>
<path d="M1326 1287 c3 -10 9 -15 12 -12 3 3 0 11 -7 18 -10 9 -11 8 -5 -6z"/>
<path d="M3866 1287 c3 -10 9 -15 12 -12 3 3 0 11 -7 18 -10 9 -11 8 -5 -6z"/>
<path d="M3707 1220 c-10 -16 -16 -30 -14 -30 2 0 13 14 25 30 13 17 19 30 14
30 -4 0 -16 -13 -25 -30z"/>
<path d="M1580 1230 c-9 -6 -10 -10 -3 -10 6 0 15 5 18 10 8 12 4 12 -15 0z"/>
<path d="M1972 1210 c-7 -11 -12 -28 -11 -37 0 -11 7 -5 15 16 17 38 14 50 -4
21z"/>
<path d="M2972 1105 c-1 -55 -4 -118 -7 -140 l-5 -40 10 40 c6 22 9 85 7 140
l-3 100 -2 -100z"/>
<path d="M4070 1184 c8 -3 58 -19 110 -36 99 -32 159 -62 223 -111 45 -35 50
-26 5 11 -69 59 -214 123 -308 136 -25 3 -38 3 -30 0z"/>
<path d="M2856 1145 c-20 -30 -21 -41 -2 -26 12 10 29 51 21 51 -1 0 -10 -11
-19 -25z"/>
<path d="M1465 1106 c-16 -7 -54 -19 -83 -26 -29 -7 -51 -14 -49 -17 7 -6 127
26 157 42 32 18 15 18 -25 1z"/>
<path d="M2246 1101 c-11 -12 -13 -20 -6 -23 8 -2 8 -11 2 -29 -6 -14 -8 -38
-5 -53 3 -16 1 -31 -6 -35 -8 -6 -8 -21 1 -62 18 -86 15 -116 -17 -149 -21
-22 -25 -30 -13 -30 10 0 15 -7 13 -17 -2 -14 -11 -17 -36 -16 -26 2 -14 -5
48 -30 45 -17 97 -45 114 -60 17 -15 33 -26 35 -24 2 2 -9 16 -26 30 -37 34
-37 56 0 132 16 33 30 66 30 74 0 10 3 11 13 2 10 -8 9 4 -4 42 -11 32 -18 81
-19 129 0 56 -4 79 -14 85 -8 5 -20 19 -25 33 l-11 25 3 -29 c2 -32 -19 -48
-26 -19 -4 17 -5 17 -6 0 0 -10 -7 -17 -13 -14 -7 2 -12 16 -11 31 2 31 1 31
-21 7z m114 -147 c4 -55 9 -105 14 -112 5 -9 1 -10 -16 -3 -22 8 -23 13 -24
115 -1 138 19 139 26 0z m-50 -269 c0 -13 -21 -25 -43 -25 -7 0 -6 4 3 10 13
8 12 10 -2 10 -31 0 -19 17 12 18 19 0 30 -4 30 -13z"/>
<path d="M3171 1094 c0 -11 3 -14 6 -6 3 7 2 16 -1 19 -3 4 -6 -2 -5 -13z"/>
<path d="M3533 1086 c-14 -10 -22 -24 -20 -30 3 -7 -4 -23 -14 -37 -20 -26
-24 -39 -11 -39 5 0 18 18 31 40 14 25 18 40 10 40 -8 0 -8 4 1 15 7 8 27 15
46 15 18 0 35 3 37 8 10 15 -58 6 -80 -12z"/>
<path d="M3918 1073 c7 -3 16 -2 19 1 4 3 -2 6 -13 5 -11 0 -14 -3 -6 -6z"/>
<path d="M1146 1015 c-33 -25 -179 -66 -268 -75 l-83 -9 95 4 c52 2 111 9 130
15 56 19 138 58 145 69 8 14 4 13 -19 -4z"/>
<path d="M3167 1011 c-4 -17 -3 -21 5 -13 5 5 8 16 6 23 -3 8 -7 3 -11 -10z"/>
<path d="M3081 963 c-10 -26 -10 -27 4 -9 8 11 15 23 15 28 0 15 -7 8 -19 -19z"/>
<path d="M1930 915 c0 -27 3 -45 7 -42 7 8 6 77 -2 85 -3 3 -5 -16 -5 -43z"/>
<path d="M3332 919 c-12 -18 -11 -21 7 -26 12 -3 18 -10 14 -16 -3 -6 -1 -7 5
-3 7 4 12 18 12 32 0 14 -4 23 -9 20 -5 -4 -11 -2 -13 4 -2 6 -9 1 -16 -11z"/>
<path d="M1198 923 c7 -3 16 -2 19 1 4 3 -2 6 -13 5 -11 0 -14 -3 -6 -6z"/>
<path d="M2157 866 c5 -47 1 -64 -25 -119 -16 -35 -33 -88 -37 -117 l-7 -52
-64 -30 c-49 -23 -78 -30 -122 -30 -52 1 -55 0 -38 -14 16 -11 17 -17 8 -26
-7 -7 -12 -19 -12 -28 0 -24 -23 -51 -45 -54 -16 -2 -22 -14 -28 -64 -5 -34
-13 -62 -18 -62 -11 0 -11 7 0 48 12 41 5 62 -21 62 -10 0 -16 -4 -13 -10 3
-6 1 -10 -6 -10 -9 0 -9 -3 0 -14 6 -7 9 -21 5 -30 -7 -18 -47 -32 -63 -21 -6
3 -11 1 -11 -5 0 -6 10 -15 23 -20 12 -5 16 -9 10 -9 -7 -1 -15 0 -17 2 -2 1
-13 -6 -24 -16 -19 -17 -19 -21 -6 -52 18 -44 18 -48 -5 -36 -10 6 -21 8 -24
5 -3 -4 -12 9 -20 27 -8 19 -22 41 -32 49 -15 13 -19 12 -30 -3 -11 -16 -14
-16 -28 -3 -8 8 -18 12 -22 8 -5 -4 -5 -1 -1 6 4 6 -1 24 -12 40 -10 15 -26
45 -35 67 -13 32 -16 35 -16 16 -1 -38 37 -155 62 -192 40 -60 42 -64 13 -41
-16 12 -37 22 -47 22 -10 0 -25 10 -34 22 -13 20 -18 21 -35 10 -15 -9 -20 -9
-20 0 0 6 -3 9 -6 5 -3 -3 -3 -15 1 -26 6 -19 41 -43 168 -115 53 -30 65 -27
15 4 -18 11 -31 20 -28 21 25 4 49 5 45 1 -2 -3 10 -13 28 -23 79 -44 74 -43
109 -26 85 40 132 57 160 57 29 0 30 -1 26 -45 -3 -41 -1 -45 19 -45 16 0 25
8 29 25 3 14 10 25 15 25 5 0 6 -12 3 -27 -4 -19 -3 -25 3 -18 17 17 45 136
38 162 -3 14 -1 31 6 39 6 7 9 20 6 28 -3 8 5 24 18 36 26 25 50 80 34 80 -5
0 -9 -8 -9 -18 0 -35 -74 -84 -189 -123 -76 -26 -83 -25 -65 9 8 16 14 56 14
97 l0 70 108 1 c65 0 110 -4 114 -10 5 -7 8 -5 8 5 0 8 -5 20 -12 27 -9 9 -7
13 6 18 13 5 14 9 5 21 -10 11 -10 13 0 11 7 -2 38 32 68 74 54 77 54 78 38
105 -15 26 -15 31 2 78 14 38 27 54 56 69 20 11 35 21 33 23 -2 3 -19 -3 -37
-12 -30 -16 -32 -16 -25 0 3 9 6 21 6 27 0 5 12 7 30 3 20 -4 30 -3 30 5 0 6
-4 8 -10 5 -5 -3 -19 -1 -31 6 -17 9 -20 17 -16 45 4 25 2 34 -8 34 -10 0 -12
-12 -8 -54z m-32 -246 c3 -5 1 -10 -4 -10 -6 0 -11 5 -11 10 0 6 2 10 4 10 3
0 8 -4 11 -10z m-135 -389 c0 -9 -27 -41 -34 -41 -2 0 -3 11 -3 25 0 18 5 25
18 25 11 0 19 -4 19 -9z m-284 -28 c-10 -10 -19 5 -10 18 6 11 8 11 12 0 2 -7
1 -15 -2 -18z m274 -54 c0 -5 -4 -9 -10 -9 -5 0 -10 7 -10 16 0 8 5 12 10 9 6
-3 10 -10 10 -16z m-19 -62 c-13 -13 -15 1 -4 30 7 17 8 17 11 -1 2 -10 -1
-23 -7 -29z m-349 -6 l22 -34 -22 12 c-20 11 -24 18 -21 37 0 4 -5 11 -13 16
-10 7 -10 9 0 6 7 -2 23 -18 34 -37z m68 -36 c0 -9 -9 -15 -22 -15 -22 1 -23
1 -4 15 25 19 26 19 26 0z"/>
<path d="M840 885 c38 -50 147 -143 230 -197 217 -140 298 -178 375 -178 41 0
275 28 290 35 6 3 -19 3 -55 0 -193 -14 -280 -17 -297 -10 -10 4 -27 10 -37
12 -11 2 -27 10 -35 17 -9 8 -44 29 -79 47 -124 66 -236 143 -332 228 -41 36
-68 57 -60 46z"/>
<path d="M3012 870 c-18 -17 -29 -30 -24 -30 5 0 21 14 37 30 37 38 30 38 -13
0z"/>
<path d="M1240 883 c0 -20 51 -73 71 -73 12 0 16 5 13 15 -4 9 -11 15 -18 14
-26 -3 -36 2 -50 29 -8 15 -15 22 -16 15z"/>
<path d="M2936 873 c-6 -14 -5 -15 5 -6 7 7 10 15 7 18 -3 3 -9 -2 -12 -12z"/>
<path d="M1878 863 c-9 -10 -19 -29 -23 -42 -5 -17 -10 -20 -18 -12 -19 19
-26 12 -32 -31 -7 -46 16 -135 40 -153 7 -6 15 -22 18 -35 4 -22 4 -21 6 6 1
39 20 94 32 94 5 0 9 12 8 28 0 26 -1 26 -9 5 -13 -32 -24 -29 -15 5 4 15 7
36 7 46 -1 10 6 32 14 47 27 52 7 82 -28 42z"/>
<path d="M2005 870 c-3 -5 -1 -10 4 -10 6 0 11 5 11 10 0 6 -2 10 -4 10 -3 0
-8 -4 -11 -10z"/>
<path d="M2483 845 c0 -22 2 -30 4 -17 2 12 2 30 0 40 -3 9 -5 -1 -4 -23z"/>
<path d="M3392 864 c-12 -8 -20 -20 -17 -25 4 -5 -1 -9 -11 -9 -13 0 -11 -6
11 -26 23 -21 25 -28 14 -35 -12 -7 -12 -9 1 -9 16 0 80 36 80 45 0 4 -10 -1
-22 -9 -27 -19 -51 -21 -45 -3 2 6 10 11 16 10 20 -5 12 19 -9 24 -26 7 -25
17 3 36 12 9 17 16 12 16 -6 1 -21 -6 -33 -15z"/>
<path d="M3460 860 c11 -11 20 -25 20 -32 0 -6 3 -8 6 -5 8 8 -23 57 -36 57
-6 0 -1 -9 10 -20z"/>
<path d="M2082 838 c-7 -7 -12 -17 -12 -22 0 -6 5 -3 11 8 9 15 13 16 20 5 6
-9 9 -10 9 -2 0 18 -15 24 -28 11z"/>
<path d="M4399 844 c-3 -22 3 -60 11 -68 6 -5 7 7 3 30 -6 39 -12 55 -14 38z"/>
<path d="M2011 814 c0 -11 3 -14 6 -6 3 7 2 16 -1 19 -3 4 -6 -2 -5 -13z"/>
<path d="M1244 801 c20 -22 26 -25 26 -13 0 4 -10 13 -22 21 -23 14 -23 14 -4
-8z"/>
<path d="M2541 794 c0 -11 3 -14 6 -6 3 7 2 16 -1 19 -3 4 -6 -2 -5 -13z"/>
<path d="M3715 798 c-36 -13 -31 -9 -39 -33 -4 -15 -1 -21 12 -22 9 -1 29 -5
43 -8 31 -8 46 16 24 39 -17 17 -20 30 -5 21 6 -3 10 -1 10 4 0 13 -5 13 -45
-1z"/>
<path d="M1281 784 c0 -11 3 -14 6 -6 3 7 2 16 -1 19 -3 4 -6 -2 -5 -13z"/>
<path d="M2456 785 c-9 -26 -7 -32 5 -12 6 10 9 21 6 23 -2 3 -7 -2 -11 -11z"/>
<path d="M1320 773 c0 -12 5 -25 10 -28 13 -8 13 15 0 35 -8 12 -10 11 -10 -7z"/>
<path d="M1295 759 c-4 -6 -5 -12 -2 -15 2 -3 7 2 10 11 7 17 1 20 -8 4z"/>
<path d="M4467 735 c7 -49 13 -58 13 -19 0 16 -5 36 -10 44 -6 10 -7 2 -3 -25z"/>
<path d="M2071 724 c0 -11 3 -14 6 -6 3 7 2 16 -1 19 -3 4 -6 -2 -5 -13z"/>
<path d="M1410 726 c0 -3 9 -10 20 -16 11 -6 20 -8 20 -6 0 3 -9 10 -20 16
-11 6 -20 8 -20 6z"/>
<path d="M1286 705 c4 -8 13 -15 21 -15 13 0 13 3 3 15 -7 8 -16 15 -21 15 -5
0 -6 -7 -3 -15z"/>
<path d="M1186 692 c-3 -6 -1 -14 5 -17 14 -9 20 -2 10 14 -6 8 -11 9 -15 3z"/>
<path d="M1226 669 c-11 -11 -15 -19 -9 -19 12 0 38 28 32 34 -2 2 -13 -5 -23
-15z"/>
<path d="M1276 683 c-4 -5 42 -53 50 -53 2 0 4 11 4 24 0 17 -7 25 -25 28 -13
3 -27 3 -29 1z"/>
<path d="M1467 681 c1 -2 -2 -12 -8 -22 -10 -20 -3 -24 18 -11 10 7 10 11 0
23 -6 8 -11 12 -10 10z"/>
<path d="M1243 645 c-8 -9 -9 -16 -3 -20 6 -3 10 -1 10 5 0 7 7 9 16 6 10 -4
14 -1 12 6 -6 18 -21 19 -35 3z"/>
<path d="M1360 640 c0 -15 7 -20 28 -20 28 0 54 -12 53 -24 -3 -22 2 -26 32
-25 30 1 31 1 7 9 -14 4 -20 8 -13 9 15 1 4 41 -12 41 -7 0 -15 4 -17 9 -1 4
-20 11 -40 15 -34 6 -38 5 -38 -14z"/>
<path d="M1569 641 c13 -12 35 -20 50 -20 26 2 26 2 2 6 -14 3 -36 12 -50 20
l-26 15 24 -21z"/>
<path d="M1500 645 c0 -7 30 -13 34 -7 3 4 -4 9 -15 9 -10 1 -19 0 -19 -2z"/>
<path d="M2030 639 c0 -5 5 -7 10 -4 6 3 10 8 10 11 0 2 -4 4 -10 4 -5 0 -10
-5 -10 -11z"/>
<path d="M2393 634 c-3 -8 -2 -19 3 -24 5 -5 10 1 10 16 2 27 -4 31 -13 8z"/>
<path d="M1658 618 c6 -6 18 -8 28 -6 14 3 12 5 -9 10 -19 3 -25 2 -19 -4z"/>
<path d="M4471 615 c-1 -11 -4 -31 -6 -45 l-6 -25 11 25 c6 13 9 33 7 45 -4
19 -4 19 -6 0z"/>
<path d="M3400 610 c-13 -8 -12 -10 3 -10 9 0 17 5 17 10 0 12 -1 12 -20 0z"/>
<path d="M2172 594 c10 -10 20 -16 22 -13 3 3 -5 11 -17 18 -21 13 -21 12 -5
-5z"/>
<path d="M1378 593 c7 -3 16 -2 19 1 4 3 -2 6 -13 5 -11 0 -14 -3 -6 -6z"/>
<path d="M1403 583 c-21 -8 -15 -22 7 -16 11 3 20 9 20 14 0 10 -8 10 -27 2z"/>
<path d="M1520 569 c0 -5 5 -7 10 -4 6 3 10 8 10 11 0 2 -4 4 -10 4 -5 0 -10
-5 -10 -11z"/>
<path d="M3370 550 c0 -5 5 -10 10 -10 6 0 10 5 10 10 0 6 -4 10 -10 10 -5 0
-10 -4 -10 -10z"/>
<path d="M4441 509 c-6 -17 -27 -54 -46 -83 -35 -50 -35 -50 -4 -16 31 35 75
118 66 126 -3 3 -10 -9 -16 -27z"/>
<path d="M3392 500 c0 -14 2 -19 5 -12 2 6 2 18 0 25 -3 6 -5 1 -5 -13z"/>
<path d="M2500 501 c0 -6 4 -13 10 -16 6 -3 7 1 4 9 -7 18 -14 21 -14 7z"/>
<path d="M2869 483 c-1 -5 -1 -10 -1 -13 2 -24 -21 -179 -34 -232 -20 -84 -35
-99 -59 -61 -21 32 -95 103 -108 103 -5 0 -4 -7 3 -15 10 -12 9 -15 -6 -15
-16 0 -16 -2 4 -16 26 -18 31 -74 8 -74 -8 0 -17 4 -21 10 -13 21 -41 -26 -42
-70 0 -25 1 -34 4 -20 2 14 9 37 15 53 8 21 13 25 24 16 8 -6 21 -9 29 -5 8 3
15 2 15 -3 0 -5 -10 -12 -22 -15 -21 -7 -20 -8 15 -21 20 -8 47 -21 60 -30 22
-17 22 -17 -13 -12 -19 2 -42 7 -51 11 -13 6 -16 2 -12 -16 7 -37 55 -58 132
-58 l68 0 16 38 c33 75 56 145 51 153 -3 5 0 17 5 26 6 10 11 14 11 8 0 -15
40 48 40 64 0 7 -10 30 -22 50 -26 41 -31 61 -16 61 6 0 -5 16 -25 35 -21 20
-37 40 -37 45 0 12 -29 14 -31 3z m68 -65 c13 -21 12 -35 -3 -35 -13 0 -18 10
-15 29 0 4 -6 5 -13 2 -9 -3 -12 -13 -9 -22 5 -14 4 -15 -8 -4 -12 11 -11 15
5 28 24 17 33 18 43 2z m13 -52 c0 -3 -4 -8 -10 -11 -5 -3 -10 -1 -10 4 0 6 5
11 10 11 6 0 10 -2 10 -4z m0 -56 c18 -13 22 -22 14 -30 -7 -7 -17 -1 -32 20
-26 34 -18 38 18 10z m-233 -122 c-3 -8 -6 -5 -6 6 -1 11 2 17 5 13 3 -3 4
-12 1 -19z m209 -33 c-7 -38 -26 -48 -26 -14 0 24 19 63 27 55 3 -3 2 -21 -1
-41z m-89 -137 c-3 -8 -6 -5 -6 6 -1 11 2 17 5 13 3 -3 4 -12 1 -19z"/>
<path d="M1763 451 c0 -11 4 -18 8 -15 4 2 10 -3 13 -12 4 -9 9 -14 12 -11 4
3 -3 18 -14 32 -18 23 -21 24 -19 6z"/>
<path d="M2832 440 c0 -14 2 -19 5 -12 2 6 2 18 0 25 -3 6 -5 1 -5 -13z"/>
<path d="M1709 443 c-16 -4 -84 -91 -77 -98 2 -2 17 16 33 40 17 25 38 45 48
45 9 0 17 5 17 10 0 6 -1 9 -2 9 -2 -1 -10 -3 -19 -6z"/>
<path d="M4292 445 c6 -7 -52 -75 -119 -141 -71 -68 -144 -104 -235 -114 l-73
-8 82 1 c46 1 83 5 83 8 0 4 10 9 23 13 13 3 44 21 69 40 25 19 48 33 52 31 3
-3 4 -3 2 0 -2 3 11 20 28 37 17 17 32 30 32 27 1 -2 11 5 23 15 27 24 28 9 1
-19 -16 -17 -17 -22 -6 -22 8 0 14 5 13 11 -1 6 3 10 10 9 6 -1 10 8 8 22 -1
14 2 25 6 25 5 0 9 -6 9 -12 1 -7 6 -3 13 10 7 12 17 19 22 15 4 -4 5 -2 1 5
-4 7 -12 10 -17 7 -9 -6 -13 8 -10 33 1 6 -4 12 -10 12 -7 0 -10 -2 -7 -5z
m14 -62 c-3 -4 -6 0 -6 7 0 8 -13 2 -32 -16 -33 -31 -29 -15 5 24 18 20 22 21
30 6 5 -8 6 -18 3 -21z"/>
<path d="M2778 411 c9 -16 18 -28 20 -27 5 6 -21 56 -29 56 -5 0 0 -13 9 -29z"/>
<path d="M1396 404 c-5 -14 -4 -15 9 -4 17 14 19 20 6 20 -5 0 -12 -7 -15 -16z"/>
<path d="M1711 413 c-1 -6 -4 -20 -7 -30 -5 -17 -5 -17 6 0 6 10 9 23 6 30 -3
9 -5 9 -5 0z"/>
<path d="M2822 390 c0 -14 2 -19 5 -12 2 6 2 18 0 25 -3 6 -5 1 -5 -13z"/>
<path d="M2052 380 c0 -14 2 -19 5 -12 2 6 2 18 0 25 -3 6 -5 1 -5 -13z"/>
<path d="M4325 340 c-10 -11 -14 -20 -9 -20 5 0 15 9 22 20 7 11 11 20 9 20
-2 0 -12 -9 -22 -20z"/>
<path d="M2575 329 c-16 -6 -14 -8 13 -8 33 -1 41 4 20 12 -7 2 -22 1 -33 -4z"/>
<path d="M3011 335 c1 -19 18 -51 18 -35 0 8 -4 22 -9 30 -5 8 -9 11 -9 5z"/>
<path d="M1640 321 c-8 -6 -18 -7 -24 -4 -5 3 -6 1 -2 -6 4 -6 2 -19 -6 -28
-12 -15 -11 -15 10 -4 13 7 21 15 18 19 -4 3 4 12 16 19 13 7 19 12 13 12 -5
1 -17 -3 -25 -8z"/>
<path d="M2598 303 c7 -3 16 -2 19 1 4 3 -2 6 -13 5 -11 0 -14 -3 -6 -6z"/>
<path d="M4211 287 c-13 -21 -12 -21 5 -5 10 10 16 20 13 22 -3 3 -11 -5 -18
-17z"/>
<path d="M4262 280 c-18 -17 -29 -30 -25 -30 10 1 35 21 52 43 20 25 11 21
-27 -13z"/>
<path d="M1905 279 c-52 -24 -34 -24 35 1 35 12 46 19 30 19 -14 0 -43 -9 -65
-20z"/>
<path d="M1351 254 c0 -11 3 -14 6 -6 3 7 2 16 -1 19 -3 4 -6 -2 -5 -13z"/>
<path d="M2560 244 c0 -15 3 -23 8 -18 4 5 10 11 13 14 4 3 1 11 -7 18 -12 11
-14 8 -14 -14z"/>
<path d="M2995 230 c-10 -11 -13 -20 -7 -20 6 0 16 9 22 20 6 11 9 20 7 20 -2
0 -12 -9 -22 -20z"/>
<path d="M4194 219 c-19 -22 -19 -22 4 -8 12 8 22 17 22 21 0 12 -6 9 -26 -13z"/>
<path d="M2570 203 c0 -4 5 -15 10 -23 8 -13 10 -13 10 2 0 9 -4 20 -10 23 -5
3 -10 3 -10 -2z"/>
<path d="M4111 165 c-71 -45 -78 -55 -13 -20 29 16 57 34 63 42 15 17 13 16
-50 -22z"/>
<path d="M3975 100 c-13 -6 -15 -9 -5 -9 8 0 22 4 30 9 18 12 2 12 -25 0z"/>
<path d="M3918 83 c6 -2 18 -2 25 0 6 3 1 5 -13 5 -14 0 -19 -2 -12 -5z"/>
<path d="M3853 73 c9 -2 23 -2 30 0 6 3 -1 5 -18 5 -16 0 -22 -2 -12 -5z"/>
<path d="M1745 39 c-81 -43 -88 -50 -21 -23 14 5 17 4 12 -4 -5 -8 4 -12 28
-12 38 0 48 13 19 24 -15 6 -15 8 -3 16 9 6 17 5 22 -3 5 -8 8 -4 8 11 0 12
-1 22 -2 22 -2 0 -30 -14 -63 -31z"/>
<path d="M1585 20 c3 -5 14 -10 23 -10 15 0 15 2 2 10 -20 13 -33 13 -25 0z"/>
<path d="M2560 13 l-35 -14 35 6 c19 3 39 10 44 15 13 13 0 11 -44 -7z"/>
<path d="M2640 10 c0 -5 19 -10 43 -9 36 1 38 2 17 9 -36 12 -60 12 -60 0z"/>
</g>
</svg>
